<?xml version="1.0" encoding="UTF-8"?>
<svg width="117px" height="86px" viewBox="0 0 117 86" version="1.1" xmlns="http://www.w3.org/2000/svg" xmlns:xlink="http://www.w3.org/1999/xlink">
    <!-- Generator: Sketch 60.1 (88133) - https://sketch.com -->
    <title>Group 55</title>
    <desc>Created with Sketch.</desc>
    <defs>
        <polygon id="path-1" points="0.0292991234 0.0268731159 3.67611383 0.0268731159 3.67611383 2.09610304 0.0292991234 2.09610304"></polygon>
        <path d="M30.5723576,0.0671827897 C28.8417218,0.241992408 27.1109508,0.268731159 25.3263678,0.497287009 L25.3263678,0.497287009 C24.3393646,0.618216031 23.3522261,0.806193476 22.3923993,1.06148808 L22.3923993,1.06148808 C22.3923993,1.04805152 22.270714,1.06148808 22.3112757,1.07492463 L22.3112757,1.07492463 C20.9592165,1.4377117 19.6477191,1.92142778 18.3767834,2.51263633 L18.3767834,2.51263633 C18.3631276,2.52607289 18.0928509,2.63356535 18.0793304,2.66057284 L18.0793304,2.66057284 C17.9306038,2.72762126 17.7818773,2.79493842 17.6466714,2.86198684 L17.6466714,2.86198684 C17.0652859,3.17102767 16.4839005,3.49350506 15.9159004,3.82941901 L15.9159004,3.82941901 C15.902515,3.84285557 15.6456237,4.00422863 15.6185826,4.01753082 L15.6185826,4.01753082 C13.5093702,5.33444787 11.5624049,6.89308859 9.77768671,8.62627019 L9.77768671,8.62627019 C9.76416611,8.62627019 9.75064552,8.63970675 9.72346913,8.68001643 L9.72346913,8.68001643 C8.35802452,10.0236722 7.08708885,11.4613839 5.92431791,12.9529762 L5.92431791,12.9529762 C4.22072329,15.1296986 2.63881399,17.4809619 1.71941372,20.1010907 L1.71941372,20.1010907 C1.4084401,20.9744669 0.975781143,22.8958947 0.962125345,22.9630775 L0.962125345,22.9630775 C0.867616405,23.4467936 0.786492852,23.9170731 0.718754685,24.4007892 L0.718754685,24.4007892 C0.705234092,24.4142258 0.691848706,24.4276623 0.691848706,24.4412332 L0.691848706,24.4412332 L0.705234092,24.4412332 C0.502560414,25.9459934 0.421436861,27.477761 0.367354492,28.996092 L0.367354492,28.996092 C0.353698694,29.2513866 0.340178101,29.5335543 0.326792715,29.8022855 L0.326792715,29.8022855 C0.326792715,29.8291586 -0.200510383,35.9024828 0.313272123,38.6301041 L0.313272123,38.6301041 C0.313272123,38.6435406 0.326792715,38.6569772 0.326792715,38.6704137 L0.326792715,38.6704137 C0.461998638,38.9391449 0.597069354,39.2078761 0.732410483,39.4900438 L0.732410483,39.4900438 C0.718754685,39.5169169 0.745931075,39.5706631 0.77297226,39.5706631 L0.77297226,39.5706631 C2.03038734,42.2579747 2.63881399,45.1737078 2.21967563,48.2103699 L2.21967563,48.2103699 C1.86814023,50.7767524 0.380875084,53.0206576 2.03038734,55.3990627 L2.03038734,55.3990627 C2.65233458,56.2991777 2.85514347,56.729282 3.90974966,56.5813455 L3.90974966,56.5813455 C4.91027349,56.4469799 5.95122389,55.6945326 6.816677,55.2242531 L6.816677,55.2242531 C8.12803924,54.5255521 9.48009847,53.8402876 10.9268018,53.5312468 L10.9268018,53.5312468 L10.9403224,53.5312468 C12.9820671,52.6309974 15.5239384,52.3353932 17.362739,53.0879748 L17.362739,53.0879748 C17.4033007,53.1147135 17.6466714,53.222206 17.7007538,53.2490791 L17.7007538,53.2490791 C18.7418394,53.799978 19.5125131,54.7271005 19.7423632,56.1648122 L19.7423632,56.1648122 C19.7558838,56.2051218 19.715322,56.2321293 19.6881456,56.2051218 L19.6881456,56.2051218 C19.1474571,55.5065552 18.5255099,54.539123 17.6872332,54.1897725 L17.6872332,54.1897725 C16.7812183,53.8268511 15.9430768,53.8402876 15.1318412,54.041836 L15.1318412,54.041836 C15.0507177,54.0554069 15.0236765,54.162765 15.0912795,54.2165113 L15.0912795,54.2165113 C15.7808297,54.7674101 16.3486945,55.5199917 17.0382447,56.2455659 L17.0382447,56.2455659 C18.349607,57.6428335 21.5000402,61.2707042 19.0932396,62.9099642 L19.0932396,62.9099642 C18.8363483,63.0846395 18.4712923,62.7890352 18.5660717,62.5068675 L18.5660717,62.5068675 C18.7281836,62.0231514 18.6336746,61.4455138 18.3767834,60.8676074 L18.3767834,60.8676074 C18.3767834,60.9079171 18.390304,60.9617977 18.390304,61.001973 L18.390304,61.001973 C18.4579069,61.9559686 18.390304,62.8966621 18.1874951,63.8236502 L18.1874951,63.8236502 C17.9441244,64.9388845 17.9441244,65.745078 18.3631276,66.3362865 L18.3631276,66.3362865 L18.5525511,66.5512714 C18.7824012,66.7931295 19.1068954,66.9812413 19.5395543,67.1291778 L19.5395543,67.1291778 C19.5936367,67.1559166 19.6477191,67.1291778 19.6747602,67.0752972 L19.6747602,67.0752972 C19.7694044,66.8468757 19.8775691,66.6318908 19.9722133,66.4169059 L19.9722133,66.4169059 C20.1074192,66.107865 20.2426251,65.7989586 20.4317782,65.530093 L20.4317782,65.530093 C20.5265576,65.3822909 20.6347223,65.2613619 20.7699282,65.1538694 L20.7699282,65.1538694 C20.8240106,65.1001232 20.8916135,65.0598135 20.9456959,65.0329404 L20.9456959,65.0329404 C20.9997783,65.0060673 21.0538607,64.9926307 21.107943,65.0060673 L21.107943,65.0060673 C21.1349842,65.0195038 21.1618902,65.0329404 21.1890666,65.046377 L21.1890666,65.046377 C21.3107519,65.1269963 21.2431489,65.409164 21.2161078,65.530093 L21.2161078,65.530093 C21.175546,65.7047683 21.1214636,65.866007 21.0809018,66.0406822 L21.0809018,66.0406822 C20.9727371,66.5243983 20.9185195,66.9812413 20.9592165,67.4918305 L20.9592165,67.4918305 C21.0132989,68.0561659 21.2025872,68.2039681 21.7569314,68.3248971 L21.7569314,68.3248971 C22.0136875,68.3920799 22.2570582,68.4055164 22.5140846,68.4055164 L22.5140846,68.4055164 C22.5546464,68.4055164 22.5952082,68.3652068 22.6085936,68.3248971 L22.6085936,68.3248971 C22.6492905,68.2039681 22.6898523,68.09661 22.7302789,67.9755466 L22.7302789,67.9755466 C22.9467436,67.4380843 23.1495525,66.7259467 23.6362938,66.3765962 L23.6362938,66.3765962 C23.7444585,66.3094134 23.893185,66.3362865 23.9471322,66.4572155 L23.9471322,66.4572155 C24.0148704,66.5915811 24.0554321,66.7393833 24.0688175,66.8871854 L24.0688175,66.8871854 C24.0419115,66.8871854 24.0283909,66.8871854 24.0688175,66.9140585 L24.0688175,66.9140585 C24.0823381,67.0484241 24.0823381,67.1693531 24.0688175,67.2902821 L24.0688175,67.2902821 L24.0688175,67.3037187 C24.0419115,67.5590133 24.0013498,67.8277444 23.9878292,68.0964756 L23.9878292,68.0964756 C23.9878292,68.2174046 23.9878292,68.3517702 24.0148704,68.4861358 L24.0148704,68.4861358 C24.0419115,68.6070648 24.0823381,68.6876842 24.1635969,68.7951766 L24.1635969,68.7951766 C24.3393646,69.0235981 24.6097764,69.0907809 24.8801883,69.1310906 L24.8801883,69.1310906 C25.2046825,69.1848368 25.5290415,69.1714002 25.8536709,69.1579637 L25.8536709,69.1579637 C25.9077533,69.1579637 25.948315,69.1042175 25.948315,69.0504712 L25.948315,69.0504712 C25.9347945,68.8892325 25.9347945,68.7145573 25.948315,68.5533186 L25.948315,68.5533186 C25.9888768,68.1233487 26.0970416,67.7068154 26.2591535,67.3171552 L26.2591535,67.3171552 C26.3404122,67.1156069 26.448577,66.9274951 26.5567417,66.7528198 L26.5567417,66.7528198 C26.63773,66.6318908 26.7595506,66.3497231 26.9353183,66.3900328 L26.9353183,66.3900328 C27.1516478,66.4303424 27.3409361,66.685637 27.4491008,66.8603123 L27.4491008,66.8603123 C27.5572655,67.0618606 27.6248685,67.2902821 27.6383891,67.5187036 L27.6383891,67.5187036 C27.6519097,67.7739982 27.5976921,68.0024197 27.5572655,68.2442777 L27.5572655,68.2442777 C27.5302243,68.3786433 27.5437449,68.5130089 27.5437449,68.6473745 L27.5437449,68.6473745 C27.5437449,68.7145573 27.5437449,68.7683035 27.5572655,68.8354863 L27.5572655,68.8354863 C27.5707861,68.9564153 27.6112127,69.0773443 27.6924715,69.1714002 L27.6924715,69.1714002 L27.705992,69.1848368 L27.8276774,69.3057658 L27.841198,69.3192024 C27.8952803,69.3595121 27.9762687,69.3998217 28.0440068,69.4266948 L28.0440068,69.4266948 C28.5577894,69.6282432 29.2067778,69.574497 29.7205603,69.4401314 L29.7205603,69.4401314 C29.788028,69.4132583 29.8557662,69.3863852 29.9097134,69.3326389 L29.9097134,69.3326389 C30.0180133,69.2117099 30.0044927,69.0235981 30.0313987,68.875796 L30.0313987,68.875796 C30.0585751,68.6876842 30.0856163,68.5130089 30.1126575,68.3248971 L30.1126575,68.3248971 C30.1396986,68.1636584 30.1396986,67.9889831 30.1666046,67.8143079 L30.1666046,67.8143079 L30.2343428,67.3977746 C30.261384,67.1962262 30.3019458,66.9946779 30.3425075,66.7931295 L30.3425075,66.7931295 C30.3425075,66.7528198 30.4099753,66.7662564 30.4099753,66.806566 L30.4099753,66.806566 C30.4371517,67.0484241 30.4777135,67.3037187 30.51814,67.5590133 L30.51814,67.5590133 C30.558837,67.3171552 30.5993988,67.0618606 30.62644,66.806566 L30.62644,66.806566 C30.62644,66.7662564 30.6805223,66.7528198 30.6940429,66.7931295 L30.6940429,66.7931295 C30.7885519,67.2096628 30.85629,67.6128939 30.9102372,68.0292928 L30.9102372,68.0292928 L30.9509342,68.3517702 C30.9644548,68.4726992 30.991496,68.6070648 31.0048813,68.7279938 L31.0048813,68.7279938 C31.0184019,68.8354863 31.0048813,68.9429788 31.0184019,69.0506056 L31.0184019,69.0506056 C31.0319225,69.1445271 31.0590989,69.238583 31.1265667,69.3057658 L31.1265667,69.3057658 C31.2754284,69.4804411 31.5728814,69.4804411 31.7892109,69.5073142 L31.7892109,69.5073142 C31.9784992,69.5343217 32.1677875,69.5476239 32.3569406,69.5343217 L32.3569406,69.5343217 C32.68157,69.5208851 33.0601466,69.453568 33.3035172,69.2117099 L33.3035172,69.2117099 C33.5468879,68.9698519 33.5198467,68.6070648 33.4792849,68.2845874 L33.4792849,68.2845874 C33.4521085,68.09661 33.411682,67.9083638 33.3981614,67.7203864 L33.3981614,67.7203864 C33.3711202,67.5455767 33.411682,67.384338 33.4657643,67.2230993 L33.4657643,67.2230993 C33.5198467,67.0349875 33.6009703,66.8603123 33.709135,66.6990736 L33.709135,66.6990736 C33.7902586,66.5781446 33.9795469,66.3497231 34.1553146,66.3765962 L34.1553146,66.3765962 C34.2093969,66.3901671 34.2634793,66.4303424 34.2903853,66.4840887 L34.2903853,66.4840887 C34.4255912,66.6990736 34.5472765,66.9274951 34.6554413,67.1559166 L34.6554413,67.1559166 C34.6961382,67.2501068 34.7502206,67.3440284 34.7906472,67.4380843 L34.7906472,67.4380843 C34.8041678,67.4649574 34.8313442,67.5455767 34.8583853,67.5590133 L34.8583853,67.5590133 C34.9530295,67.8277444 35.0206325,68.1233487 35.0611942,68.4055164 L35.0611942,68.4055164 C35.0747148,68.5533186 35.0882354,68.6878185 35.0882354,68.8354863 L35.0882354,68.8354863 C35.0882354,68.9296766 35.0340178,69.1042175 35.1287972,69.1579637 L35.1287972,69.1579637 C35.169359,69.1848368 35.2099207,69.1848368 35.2504825,69.1848368 L35.2504825,69.1848368 C35.5479356,69.1848368 35.8453886,69.2117099 36.1428416,69.1715346 L36.1428416,69.1715346 C36.2915681,69.1580981 36.4402946,69.117654 36.5755006,69.0640421 L36.5755006,69.0640421 C36.7376125,68.996725 36.8188712,68.9026691 36.9135154,68.7683035 L36.9135154,68.7683035 C37.1026685,68.4995723 37.0487213,68.0831734 37.0081595,67.7739982 L37.0081595,67.7739982 C36.9809831,67.5321402 36.9540771,67.3037187 36.9540771,67.0618606 L36.9540771,67.0618606 C36.9675977,66.900622 37.0216801,66.32285 37.2650508,66.3362865 L37.2650508,66.3362865 C37.4002567,66.3362865 37.521942,66.4840887 37.6029304,66.5781446 L37.6029304,66.5781446 C37.7247509,66.7125101 37.8192598,66.8603123 37.9005186,67.021551 L37.9005186,67.021551 C38.0761511,67.3305918 38.184451,67.6665058 38.3195218,68.0024197 L38.3195218,68.0024197 C38.3737393,68.1233487 38.4143011,68.2308412 38.4412071,68.3517702 L38.4412071,68.3517702 C38.4548629,68.4055164 38.4954247,68.4323896 38.5359864,68.4323896 L38.5359864,68.4323896 C38.7793571,68.418953 39.0361132,68.4055164 39.2930044,68.3517702 L39.2930044,68.3517702 C39.8474839,68.217539 40.036637,68.0696025 40.0908546,67.5187036 L40.0908546,67.5187036 C40.1448017,67.021551 40.077334,66.564708 39.9691692,66.0675554 L39.9691692,66.0675554 C39.8880457,65.7585145 39.7797457,65.4629103 39.8069221,65.1404329 L39.8069221,65.1404329 C39.8204427,65.1404329 39.8204427,65.1269963 39.8204427,65.1135597 L39.8204427,65.1135597 C39.9286074,64.9388845 40.1312811,65.0733844 40.2395811,65.1538694 L40.2395811,65.1538694 C40.3207046,65.2076157 40.401693,65.2747984 40.4694311,65.3554178 L40.4694311,65.3554178 C40.6046371,65.5166565 40.7263224,65.7047683 40.8209665,65.8928801 L40.8209665,65.8928801 C40.8480077,65.9331898 40.996599,66.2422306 41.0101196,66.2691037 L41.0101196,66.2691037 C41.0237754,66.32285 41.0508166,66.3765962 41.0778578,66.4303424 L41.0778578,66.4303424 C41.1860225,66.6454617 41.2806667,66.8603123 41.3751756,67.0887338 L41.3751756,67.0887338 C41.402352,67.1291778 41.4564344,67.1559166 41.5105167,67.14248 L41.5105167,67.14248 C42.4434376,66.8200026 42.8760966,66.3094134 42.9977819,65.5569662 L42.9977819,65.5569662 C43.0113025,65.5032199 43.0248231,65.3419812 43.0248231,65.2747984 L43.0248231,65.2747984 C43.0383437,64.8582651 42.9842613,64.3879856 42.862576,63.8370867 L42.862576,63.8370867 C42.6597671,62.9099642 42.5920289,61.9694052 42.6597671,61.0154096 L42.6597671,61.0154096 C42.6597671,60.9750999 42.6732877,60.9213537 42.6732877,60.881044 L42.6732877,60.881044 C42.6192053,61.0288461 42.5649877,61.1766483 42.5245612,61.3111482 L42.5245612,61.3111482 C42.5110406,61.3513235 42.3893552,62.2112632 42.4839994,62.5204384 L42.4839994,62.5204384 C42.5785083,62.8024718 42.2134523,63.0980761 41.9565611,62.9234008 L41.9565611,62.9234008 C41.699805,62.7622965 41.5105167,62.5606137 41.3751756,62.3590654 L41.3751756,62.3590654 C41.3481344,62.3187557 41.2671461,62.1440804 41.2671461,62.1710879 L41.2671461,62.1710879 C40.6181577,60.881044 41.6862844,59.0671087 42.7679318,57.6831432 L42.7679318,57.6831432 L42.9570849,57.4412852 C43.3357967,56.9575691 43.7143733,56.5544723 43.9983057,56.2455659 L43.9983057,56.2455659 C44.4174441,55.8154617 44.7960207,55.3586187 45.1745972,54.9555219 L45.1745972,54.9555219 L45.2692414,54.8480295 C45.4855709,54.619608 45.7019003,54.4046231 45.945271,54.2165113 L45.945271,54.2165113 C46.012874,54.162765 45.9856976,54.0687091 45.9047092,54.041836 L45.9047092,54.041836 C45.0934737,53.8402876 44.255197,53.8134145 43.3493173,54.1897725 L43.3493173,54.1897725 C42.9300437,54.3643134 41.5645991,55.9229541 41.3481344,56.2051218 L41.3481344,56.2051218 C41.334749,56.231995 41.2941873,56.1916853 41.2941873,56.1648122 L41.2941873,56.1648122 C41.3751756,55.6139133 41.5510785,55.1301972 41.7809286,54.7271005 L41.7809286,54.7271005 C41.7944492,54.7002273 42.1459846,54.1762016 42.3082317,54.0149629 L42.3082317,54.0149629 C42.3216171,54.0015263 42.4163964,53.920907 42.4028758,53.920907 L42.4028758,53.920907 C44.1604176,52.2279007 47.5271803,52.4025759 50.1094782,53.5446834 L50.1094782,53.5446834 L50.1229988,53.5446834 C51.5698374,53.8537242 52.9354172,54.5389887 54.2333941,55.2376897 L54.2333941,55.2376897 C54.7066148,55.4929843 55.2337827,55.8288982 55.7747416,56.1110659 L55.7747416,56.1110659 L55.9099475,56.1782487 C56.3154301,56.3797971 56.7347036,56.5410358 57.1403214,56.594782 L57.1403214,56.594782 C58.1949276,56.7425842 58.3840807,56.3260509 59.0196837,55.4123649 L59.0196837,55.4123649 C60.669196,53.0206576 59.1819308,50.790189 58.8303954,48.2238064 L58.8303954,48.2238064 C58.5870248,46.503927 58.6816689,44.8243573 59.0332043,43.1985338 L59.0332043,43.1985338 L59.2493986,42.7685639 C59.600934,41.3577253 60.1418929,39.9871964 60.8449637,38.6704137 L60.8449637,38.6704137 C60.8449637,38.6569772 60.8584843,38.6435406 60.8584843,38.6301041 L60.8584843,38.6301041 C61.034252,37.6492353 61.1018549,36.6280569 61.1153755,35.5800054 L61.1153755,35.5800054 L61.1153755,35.2844011 C61.1153755,33.1748615 60.8720049,30.9981392 60.8044019,28.9826555 L60.8044019,28.9826555 C60.6962372,25.9728665 60.4662519,22.949641 59.4658633,20.0876541 L59.4658633,20.0876541 C58.546463,17.4809619 56.9510331,15.1161277 55.2609591,12.9394053 L55.2609591,12.9394053 C54.666053,12.1735215 54.0305852,11.4210742 53.3815967,10.6955001 L53.3815967,10.6955001 C53.3275144,10.6417539 53.1111849,10.4000302 53.0976643,10.3864593 L53.0976643,10.3864593 C50.3394635,7.36323375 47.1350831,4.71623183 43.5115644,2.86198684 L43.5115644,2.86198684 C41.8890933,2.02892025 40.1584575,1.38396547 38.3737393,0.953995613 L38.3737393,0.953995613 C38.3872599,0.927122497 37.8599568,0.833066592 37.8192598,0.819630034 L37.8192598,0.819630034 C37.1704066,0.685264455 36.494377,0.564335433 35.831868,0.483716086 L35.831868,0.483716086 C35.7237033,0.470279528 35.6155385,0.470279528 35.5072386,0.45684297 L35.5072386,0.45684297 C35.5207592,0.45684297 35.0611942,0.416533296 34.9395089,0.403096738 L34.9395089,0.403096738 C34.9665501,0.403096738 34.8854265,0.38966018 34.8988119,0.403096738 L34.8988119,0.403096738 C33.438588,0.268731159 32.019061,0.214984927 30.5858782,0.0671827897 L30.5858782,0.0671827897 L30.5723576,0.0671827897 Z" id="path-3"></path>
        <path d="M38.5224659,0.241858043 C37.7923539,1.07492463 36.9809831,1.70644286 36.8864742,3.02322554 L36.8864742,3.02322554 C36.7511331,4.70279528 37.616451,6.20768977 37.8058745,7.84694983 L37.8058745,7.84694983 C37.9544658,9.10998628 37.5489832,10.0774185 36.9405566,11.1792162 L36.9405566,11.1792162 C36.2780475,12.3750699 35.6424445,13.5843601 34.9393737,14.7399041 L34.9393737,14.7399041 C34.9258531,14.7533406 34.9123325,14.7533406 34.8989471,14.7399041 L34.8989471,14.7399041 C34.4391118,14.0277665 34.4933294,13.2081364 34.696003,12.3885064 L34.696003,12.3885064 C34.7096588,11.9854097 34.7096588,11.4748205 34.2229175,11.5151301 L34.2229175,11.5151301 C33.4791497,11.5688764 32.9788878,12.281014 32.5598847,12.8050397 L32.5598847,12.8050397 C32.2759522,13.1409537 32.1813081,13.4768676 32.0596228,13.87983 L32.0596228,13.87983 C31.9244168,14.2964976 31.7216079,14.6861578 31.4917579,15.0489449 L31.4917579,15.0489449 C31.4511961,15.1026911 31.3700725,15.0892546 31.356552,15.0355083 L31.356552,15.0355083 C31.221346,14.6861578 31.0996607,14.2964976 31.0996607,13.920274 L31.0996607,13.920274 C31.0996607,13.6918525 31.1671285,13.342502 30.8698106,13.2484461 L30.8698106,13.2484461 C30.3695487,13.0872074 29.7746427,13.3156289 29.3825455,13.6381063 L29.3825455,13.6381063 C29.0039689,13.9605837 28.8822836,14.3502439 28.6794747,14.7802137 L28.6794747,14.7802137 C28.5442688,15.0623814 28.3955422,15.3445492 28.2331599,15.6132803 L28.2331599,15.6132803 C28.1927334,15.6804631 28.1521716,15.7342093 28.071048,15.7207728 L28.071048,15.7207728 C28.0169657,15.7207728 27.9628833,15.65359 27.9628833,15.5998438 L27.9628833,15.5998438 C27.9223215,15.1564373 27.773595,14.4442998 27.5707861,14.0143299 L27.5707861,14.0143299 C27.5302243,13.9337106 27.476142,13.8530912 27.3948832,13.799345 L27.3948832,13.799345 C27.3138949,13.7321622 27.2057301,13.7455988 27.111086,13.7590353 L27.111086,13.7590353 C27.0705242,13.7590353 27.0163066,13.7724719 26.9758801,13.7859084 L26.9758801,13.7859084 C26.813633,13.8262181 26.6512506,13.9068375 26.5026593,13.9874568 L26.5026593,13.9874568 C26.448577,14.0143299 26.380974,14.0546396 26.3268916,14.0949493 L26.3268916,14.0949493 C26.313371,14.1085202 26.2592887,14.1486955 26.2592887,14.1486955 L26.2592887,14.1486955 C26.1780299,14.2158783 26.1105622,14.2964976 26.042824,14.3636804 L26.042824,14.3636804 C25.9211387,14.498046 25.8266297,14.6324116 25.718465,14.7667772 L25.718465,14.7667772 C25.6642474,14.83396 25.6238208,14.8877062 25.5832591,14.9414524 L25.5832591,14.9414524 C25.5560827,14.9817621 25.5156561,15.0220718 25.4750943,15.075818 L25.4750943,15.075818 C25.4074914,15.1833105 25.353409,15.2908029 25.2991914,15.3982954 L25.2991914,15.3982954 C25.2317237,15.5729706 25.1506001,15.7342093 25.0693413,15.895448 L25.0693413,15.895448 C24.9611766,16.1238695 24.8531471,16.352291 24.7179412,16.5538394 L24.7179412,16.5538394 C24.6773794,16.6075856 24.5961206,16.6075856 24.5826,16.5404028 L24.5826,16.5404028 C24.3799263,15.774519 23.9741734,13.8127816 22.8520994,14.041203 L22.8520994,14.041203 C21.5135608,14.3099342 21.3783549,16.0701233 20.9862577,17.0778651 L20.9862577,17.0778651 C20.9727371,17.0913017 20.9592165,17.0913017 20.9456959,17.0778651 L20.9456959,17.0778651 C20.9185195,17.0241189 20.8916135,16.9703727 20.8645724,16.930063 L20.8645724,16.930063 C20.8375312,16.9838092 20.8103548,17.0375555 20.7834488,17.0778651 L20.7834488,17.0778651 C20.7699282,17.1047382 20.742887,17.0913017 20.742887,17.0778651 L20.742887,17.0778651 C20.6886695,16.9166264 20.6482429,16.7553877 20.6076811,16.594149 L20.6076811,16.594149 C20.4859958,16.1776158 20.3643104,15.7476459 20.1884075,15.3445492 L20.1884075,15.3445492 C19.9992545,14.9145793 19.6747602,14.498046 19.2961837,14.2293149 L19.2961837,14.2293149 C19.1474571,14.1352589 18.9850748,14.0546396 18.8094423,14.0277665 L18.8094423,14.0277665 C18.2145363,13.9471471 17.8359597,14.5249191 17.6331508,14.9817621 L17.6331508,14.9817621 C17.4168213,15.4789147 17.2814802,16.0163771 17.1462743,16.5404028 L17.1462743,16.5404028 C17.1193683,16.594149 17.0381095,16.6075856 17.0112036,16.5538394 L17.0112036,16.5538394 C16.632627,15.9760674 16.4568593,15.2908029 15.970118,14.7802137 L15.970118,14.7802137 C15.8212562,14.6324116 15.6860503,14.4846095 15.537459,14.3368073 L15.537459,14.3368073 C15.2670472,14.0546396 15.0101559,13.8127816 14.5910176,13.7859084 L14.5910176,13.7859084 C14.509894,13.7859084 14.442291,13.7859084 14.3746881,13.8127816 L14.3746881,13.8127816 C14.0907556,13.920274 14.0096321,14.4039901 13.9420291,14.6592847 L13.9420291,14.6592847 C13.8607704,14.9683255 13.7933026,15.3042395 13.7662614,15.6267169 L13.7662614,15.6267169 C13.7526056,15.7476459 13.5904937,15.8148287 13.5228908,15.6938997 L13.5228908,15.6938997 C13.3200819,15.3178104 13.1306584,14.954889 12.9550259,14.5652288 L12.9550259,14.5652288 C12.8062994,14.2158783 12.6034905,13.8799643 12.3060375,13.6381063 L12.3060375,13.6381063 C11.9273257,13.342502 11.359596,13.1678268 10.8863753,13.262017 L10.8863753,13.262017 C10.8321577,13.262017 10.7782105,13.2887558 10.7376488,13.3156289 L10.7376488,13.3156289 C10.6430046,13.3828117 10.6565252,13.557487 10.6565252,13.6649794 L10.6565252,13.6649794 C10.6565252,13.799345 10.6700458,13.920274 10.6565252,14.041203 L10.6565252,14.041203 C10.6159634,14.3905535 10.5213193,14.7131653 10.3996339,15.0489449 L10.3996339,15.0489449 C10.3725928,15.1026911 10.2914692,15.1161277 10.264428,15.0623814 L10.264428,15.0623814 C9.96683979,14.5786654 8.41210689,11.6091861 7.54665378,11.5420033 L7.54665378,11.5420033 C7.05991245,11.5151301 7.05991245,12.0122828 7.07356825,12.4153795 L7.07356825,12.4153795 C7.27637714,13.2350096 7.33045951,14.0546396 6.87075937,14.7667772 L6.87075937,14.7667772 C6.85723878,14.7802137 6.84371818,14.7802137 6.83019759,14.7667772 L6.83019759,14.7667772 C6.12712679,13.6112332 5.47800316,12.3885064 4.82914994,11.2060893 L4.82914994,11.2060893 C4.22072329,10.1178625 3.81510552,9.15029595 3.96383203,7.87382295 L3.96383203,7.87382295 L4.41001158,5.92552205 C4.69394402,4.98496299 4.96435586,4.04440394 4.88323231,3.05009865 L4.88323231,3.05009865 C4.78858816,1.74675253 3.97735263,1.10179775 3.24724064,0.282167717 L3.24724064,0.282167717 C3.15246129,0.174675253 3.01739057,0.120929021 2.88218465,0.147802137 L2.88218465,0.147802137 C3.28766721,0.806327842 3.4906113,1.49145793 3.53103787,2.29765141 L3.53103787,2.29765141 C3.54469367,2.51263633 3.54469367,2.74105782 3.61229663,2.92916963 L3.61229663,2.92916963 C3.55807906,3.77567278 3.30118781,4.55499314 3.03091117,5.3343135 L3.03091117,5.3343135 C2.66571997,6.40923813 2.28727859,7.45728965 2.46291109,8.68001643 L2.46291109,8.68001643 C2.46291109,8.70688954 2.4358699,8.7203261 2.42248452,8.70688954 L2.42248452,8.70688954 C1.88166082,8.06193476 1.80053727,7.47072621 1.88166082,6.6107865 L1.88166082,6.6107865 C1.97616976,5.64335433 2.51712866,4.68935872 2.50360807,3.70848999 L2.50360807,3.70848999 C2.49008748,2.64700191 1.67885194,1.67956974 0.853960607,1.06148808 L0.853960607,1.06148808 C0.827054629,1.03461496 0.800013444,1.0211784 0.77297226,0.994305287 L0.77297226,0.994305287 C0.637631131,0.886812824 0.461998638,0.84650315 0.313272123,0.913685939 L0.313272123,0.913685939 C0.205107385,0.967432171 0.0969426465,1.00774185 0.00216329476,1.04805152 L0.00216329476,1.04805152 C0.340313307,1.63926007 0.59720456,2.28421485 0.786492852,2.94260619 L0.786492852,2.94260619 C1.0569047,3.85629213 1.2190166,4.78341462 1.31379595,5.72397368 L1.31379595,5.72397368 C1.4084401,6.67796929 1.44886667,7.63196491 1.46238726,8.59939708 L1.46238726,8.59939708 C1.47590785,9.55339269 1.44886667,10.4939517 1.43548128,11.4479474 L1.43548128,11.4479474 C1.42196069,12.281014 1.3949195,13.100644 1.42196069,13.9337106 L1.42196069,13.9337106 C1.47590785,15.7476459 1.48942844,17.4943984 3.11203472,18.6365059 L3.11203472,18.6365059 C4.26114986,19.4426993 5.69446784,19.8457961 6.91132115,20.5713702 L6.91132115,20.5713702 C7.42496845,20.880411 7.89832438,21.2297615 8.35802452,21.6059852 L8.35802452,21.6059852 C8.18212161,21.0416497 7.95240675,20.4907508 7.64143313,19.9801616 L7.64143313,19.9801616 C7.6818597,19.9801616 7.72255668,19.9667251 7.73607727,19.9131132 L7.73607727,19.9131132 C7.69538029,19.9264154 7.64143313,19.9264154 7.60087135,19.9264154 L7.60087135,19.9264154 C7.26285654,19.3889531 6.83006239,18.8918005 6.23515633,18.4618306 L6.23515633,18.4618306 C6.14064739,18.3946478 6.113471,18.2334091 6.23515633,18.1796629 L6.23515633,18.1796629 C8.84476584,16.9166264 10.0480986,22.1703206 10.6700458,23.6752151 L10.6700458,23.6752151 C11.6974756,26.1878514 13.4688084,27.6658728 16.2405298,27.9211674 L16.2405298,27.9211674 C16.9164242,27.9883502 17.6331508,28.0017867 18.3631276,28.0017867 L18.3631276,28.0017867 L18.6200188,28.0017867 C19.3908278,28.0017867 20.1750222,28.0152233 20.9320401,28.0824061 L20.9320401,28.0824061 C22.4870434,27.9480405 24.1365557,28.055533 25.6373414,27.9211674 L25.6373414,27.9211674 C28.4090628,27.6658728 30.1666046,26.201288 31.2078254,23.6752151 L31.2078254,23.6752151 C31.6269638,22.6271636 32.3435552,19.8054864 33.6008351,18.5693231 L33.6008351,18.5693231 L33.6954792,18.4887037 C34.2364381,18.0049876 34.8719059,17.8168758 35.6424445,18.1796629 L35.6424445,18.1796629 C35.7641298,18.2334091 35.7372238,18.3946478 35.6424445,18.4618306 L35.6424445,18.4618306 C34.4526324,19.3352069 33.8984233,20.4235681 33.5198467,21.6194217 L33.5198467,21.6194217 C33.9658911,21.2431981 34.4526324,20.8938476 34.9665501,20.5848068 L34.9665501,20.5848068 C35.831868,20.060781 36.79183,19.7114305 37.6977097,19.2680241 L37.6977097,19.2680241 L37.9005186,19.1605316 C38.1978364,19.0127295 38.4954247,18.8380542 38.7658365,18.6499424 L38.7658365,18.6499424 C38.941469,18.5290134 39.0903307,18.4080844 39.2255366,18.2737188 L39.2255366,18.2737188 L39.3201808,18.1796629 C39.3877838,18.1124801 39.4417309,18.0452973 39.4959485,17.9781145 L39.4959485,17.9781145 L39.6041132,17.8303124 C40.1043751,17.1450479 40.2936634,16.3254179 40.374787,15.4520416 L40.374787,15.4520416 L40.374787,15.3848588 C40.4152136,14.9145793 40.4288694,14.4308632 40.44239,13.9471471 L40.44239,13.9471471 C40.5370341,10.4536421 39.8204427,4.6624856 41.8483963,1.06148808 L41.8483963,1.06148808 C41.6592433,0.980868729 41.1182844,0.994305287 41.0101196,1.07492463 L41.0101196,1.07492463 C40.1718429,1.6930063 39.3742632,2.66043847 39.3607426,3.72192655 L39.3607426,3.72192655 C39.347222,4.70279528 39.8880457,5.64335433 39.9826898,6.62422306 L39.9826898,6.62422306 C40.0638134,7.48416277 39.9826898,8.06193476 39.4417309,8.7203261 L39.4417309,8.7203261 C39.4282103,8.73376266 39.4013043,8.70688954 39.4013043,8.69345298 L39.4013043,8.69345298 C39.6987574,6.65109618 38.4143011,5.03870923 38.252054,3.07697177 L38.252054,3.07697177 L38.2385334,2.91573307 C38.1709305,1.80049876 38.3602187,0.927122497 38.8875218,0.107492463 L38.8875218,0.107492463 C38.8708915,0.105880077 38.8542612,0.105073883 38.8376309,0.105073883 L38.8376309,0.105073883 C38.7195961,0.105073883 38.6054823,0.147667772 38.5224659,0.241858043" id="path-5"></path>
    </defs>
    <g id="Page-1" stroke="none" stroke-width="1" fill="none" fill-rule="evenodd">
        <g id="Service-Web-Dev" transform="translate(-133.000000, -1421.000000)">
            <g id="Group-21" transform="translate(-1255.000000, 1084.000000)">
                <g id="Group-55" transform="translate(1388.000000, 337.000000)">
                    <g id="Group-54">
                        <g id="Group-26" transform="translate(0.000000, 39.436298)">
                            <path d="M15.3211025,20.7460454 C13.2930137,12.6975472 12.2924898,5.60304466 12.5764223,2.16328583 L9.0205065,2.90229651 C8.58784755,6.32861879 9.58837137,13.5306138 11.7787073,21.6328583 C14.7532376,32.6239627 18.4578799,41.1830501 20.0533098,40.7933899 C20.9862306,40.5649684 21.9191515,40.3365469 22.8520724,40.121562 C21.4594514,40.4574759 18.0928239,31.7774595 15.3211025,20.7460454 L15.3211025,20.7460454 Z M10.6700188,21.9418991 C10.4131275,21.0013401 10.1697568,20.0742176 9.95342736,19.1605316 C8.91234176,14.9414524 8.23631215,11.0985969 7.99294149,8.08880788 L5.45107014,8.76063577 C5.28882303,11.5554398 6.14062035,16.8225705 7.84421497,22.7077829 C10.2779216,31.1325047 13.3200548,37.6492353 14.6315523,37.2864483 C15.104773,37.1655192 15.5644732,37.0311537 16.0376939,36.9102246 C14.6315523,34.0885475 12.9685194,29.7485393 11.4542131,24.6829569 C11.1973219,23.8095807 10.92691,22.8824582 10.6700188,21.9418991 L10.6700188,21.9418991 Z M3.39594012,21.7806604 C2.30077214,22.1165744 1.20560417,22.4524883 0.110436198,22.8018388 C0.0022714595,22.8421485 -0.0382903173,23.2452452 0.0428332363,23.8364538 C1.23264536,23.4467936 2.43597807,23.07057 3.65283137,22.7077829 C3.55818722,22.3853055 3.47706367,22.0762647 3.39594012,21.7806604 L3.39594012,21.7806604 Z M4.91024645,14.9145793 L3.2472136,15.4251685 C3.38241952,17.3197232 4.00436677,20.2892025 4.99137,23.5542861 C6.64088226,28.9557823 8.58784755,33.1345519 9.3720419,32.9061304 L10.2779216,32.6508358 C8.92586235,29.5201178 7.77661201,26.2953439 6.83017055,23.0168237 C6.0459762,20.3429487 5.39698777,17.6422006 4.91024645,14.9145793 L4.91024645,14.9145793 Z M4.59927283,13.0200246 L3.598749,13.3021924 C3.31481656,13.3828117 3.19313123,13.920274 3.20665183,14.7802137 L4.78856112,14.2830611 C4.72095816,13.8530912 4.6533552,13.4231214 4.59927283,13.0200246 L4.59927283,13.0200246 Z M3.81507848,23.2855549 C2.59822517,23.6617785 1.36785128,24.0380021 0.150997974,24.4410989 C0.191559751,24.6292107 0.24564212,24.8173225 0.313245081,25.0188709 C0.691821665,26.1475417 1.27320713,26.9806083 1.43545424,26.9268621 C2.50358103,26.5775116 3.58522841,26.2415976 4.66687579,25.9191203 C4.43702572,25.2741655 4.20717565,24.588901 3.99084618,23.8633269 C3.92324322,23.6617785 3.86916085,23.4736667 3.81507848,23.2855549 L3.81507848,23.2855549 Z M24.8260789,17.9781145 L23.7579521,17.2256673 C22.2166045,17.5347081 20.6617364,17.8706221 19.1203889,18.206536 C19.1203889,18.206536 19.1474301,18.5827596 19.2555948,19.1470951 C21.107916,18.7305618 22.9602371,18.3409016 24.8260789,17.9781145 L24.8260789,17.9781145 Z M13.414699,0 C12.2924898,0.268731159 11.1567601,0.537462317 10.0345509,0.819630034 C9.60189196,0.927122497 9.30443893,1.4377117 9.12867124,2.27077829 L12.6440252,1.50489449 C12.7792311,0.618081665 13.0361224,0.0940559055 13.414699,0 L13.414699,0 Z M7.88477675,6.261436 C7.34395306,6.40923813 6.80312937,6.54360371 6.26230568,6.69140585 C5.88372909,6.79889831 5.64035843,7.29605096 5.5186731,8.11568099 L7.93885912,7.4438531 C7.91181793,7.0273198 7.89829734,6.63765962 7.88477675,6.261436 L7.88477675,6.261436 Z M25.4885879,18.448394 C23.4469784,18.8380542 21.405369,19.2680241 19.3772802,19.7383036 L19.3772802,19.7651767 C19.4854449,20.2892025 19.647692,20.8132282 19.8234597,21.3238174 C22.9061547,20.6251164 26.0023704,20.0070348 29.098586,19.4426993 C27.3273884,19.1336585 25.7589997,18.6499424 25.5967526,18.5290134 L25.4885879,18.448394 Z M19.6206508,26.2819073 C19.6206508,26.2819073 19.6341714,26.2819073 19.6206508,26.2819073 L20.4318864,26.0803589 C20.1209127,26.1206686 19.1203889,23.433357 18.3091534,20.0070348 C17.4979178,16.5807125 17.2410266,13.7321622 17.5655208,13.6246697 L16.7137235,13.8127816 L16.6866823,13.8127816 C16.3351469,13.8934009 16.5920382,16.7688243 17.4032737,20.2085831 C18.2145092,23.648342 19.2961566,26.3625267 19.6206508,26.2819073 L19.6206508,26.2819073 Z" id="Fill-1" fill="#FFFFFF"></path>
                            <path d="M97.3234946,19.8995423 L97.3234946,19.8726692 C95.2818851,19.4158262 93.2267551,18.9724198 91.1716251,18.5827596 L91.0499397,18.6768155 C90.874172,18.8111811 89.3328245,19.3217703 87.494024,19.5636284 C90.6308014,20.1279638 93.7540582,20.759482 96.877315,21.458183 C97.0530827,20.9610304 97.2153298,20.4370046 97.3234946,19.8995423" id="Fill-3" fill="#FFFFFF"></path>
                            <path d="M110.438469,6.83920799 C109.897645,6.69140585 109.356822,6.54360371 108.815998,6.40923813 C108.802477,6.7720252 108.788957,7.16168538 108.761916,7.56478212 L111.168581,8.23661001 C111.060416,7.43041654 110.817046,6.94670045 110.438469,6.83920799" id="Fill-5" fill="#FFFFFF"></path>
                            <path d="M104.056749,1.62582351 L107.572103,2.39170731 C107.396336,1.57207728 107.085362,1.07492463 106.666224,0.967432171 C105.544015,0.685264455 104.408285,0.416533296 103.272555,0.161238695 C103.664652,0.241858043 103.921544,0.752447244 104.056749,1.62582351" id="Fill-7" fill="#FFFFFF"></path>
                            <path d="M96.2553542,26.2415976 L96.2553542,26.2415976 L97.0530692,26.4297095 L97.0665898,26.443146 C97.391084,26.5237654 98.4456902,23.8230172 99.2704463,20.3966949 C100.095202,16.9703727 100.338573,14.0815127 99.9870377,14.0008934 L99.9599965,14.0008934 L99.1081992,13.8127816 C99.4191728,13.9068375 99.1622816,16.7688243 98.3645666,20.1951466 C97.5668517,23.6214688 96.5663279,26.2819073 96.2553542,26.2415976" id="Fill-9" fill="#FFFFFF"></path>
                            <path d="M113.088492,13.4634445 L112.087968,13.1812768 C112.033885,13.5709369 111.966282,13.9874702 111.898679,14.4040035 L113.467068,14.9011562 C113.494109,14.054653 113.372424,13.5440638 113.088492,13.4634445" id="Fill-11" fill="#FFFFFF"></path>
                            <path d="M97.5939064,18.3543381 C96.0390383,18.0049876 94.4841702,17.6690737 92.9293021,17.3600329 L91.8611753,18.1124801 C93.727017,18.4887037 95.5928587,18.8783639 97.4587005,19.2948972 C97.5533446,18.7305618 97.5939064,18.3543381 97.5939064,18.3543381" id="Fill-13" fill="#FFFFFF"></path>
                            <path d="M111.804035,15.0220718 C111.303773,17.7631296 110.654785,20.4773143 109.85707,23.1511893 C108.910629,26.4297095 107.761378,29.6544834 106.409319,32.7852014 L107.315199,33.040496 C108.099393,33.2689174 110.059879,29.0767114 111.695871,23.6886516 C112.696394,20.3966949 113.318342,17.4137791 113.453548,15.5192244 L111.804035,15.0220718 Z" id="Fill-15" fill="#FFFFFF"></path>
                            <path d="M111.249705,8.89501479 L108.707833,8.22318689 C108.464463,11.2329759 107.788433,15.089268 106.747347,19.3217837 C106.531018,20.2220331 106.287647,21.1491556 106.030756,22.1031512 C105.773865,23.0437103 105.503453,23.9708328 105.246562,24.8576456 C103.732255,29.923228 102.069222,34.2632362 100.663081,37.0849133 C101.136302,37.2058424 101.596002,37.3267714 102.069222,37.461137 C103.38072,37.8104875 106.422853,31.2937569 108.85656,22.8824716 C110.560154,16.9703861 111.411952,11.6763823 111.249705,8.89501479" id="Fill-17" fill="#FFFFFF"></path>
                            <path d="M107.693789,3.03666209 L104.137873,2.29765141 C104.421805,5.72397368 103.421282,12.8453494 101.393193,20.8938476 C98.6079508,31.9386982 95.2413233,40.6052781 93.8622229,40.2828007 C94.7951438,40.4977856 95.7280647,40.7262071 96.6609855,40.9546286 C98.269936,41.3577253 101.974578,32.7852014 104.935588,21.794097 C107.125924,13.678416 108.126448,6.46298437 107.693789,3.03666209" id="Fill-19" fill="#FFFFFF"></path>
                            <path d="M112.723436,23.9976925 C112.507106,24.7232666 112.277256,25.4085311 112.033885,26.0534858 C113.115533,26.3759632 114.18366,26.7118772 115.265307,27.0612277 C115.427554,27.1149739 116.00894,26.2819073 116.387516,25.1532365 C116.455119,24.9516881 116.509201,24.7635763 116.549763,24.5754645 C115.33291,24.1858043 114.116057,23.7961441 112.885683,23.433357 C112.8316,23.6214688 112.777518,23.8095807 112.723436,23.9976925" id="Fill-21" fill="#FFFFFF"></path>
                            <g id="Group-25" transform="translate(113.032151, 21.901589)">
                                <mask id="mask-2" fill="white">
                                    <use xlink:href="#path-1"></use>
                                </mask>
                                <g id="Clip-24"></g>
                                <path d="M3.5716943,1.04805152 C2.47652632,0.698701013 1.38135835,0.349350506 0.286190376,0.0268731159 C0.205066823,0.32247739 0.123943269,0.644954781 0.0292991234,0.967432171 C1.23263183,1.33021924 2.43596455,1.70644286 3.63929726,2.09610304 C3.70690022,1.49145793 3.67985903,1.08836119 3.5716943,1.04805152" id="Fill-23" fill="#FFFFFF" mask="url(#mask-2)"></path>
                            </g>
                        </g>
                        <g id="Group-29" transform="translate(27.852420, 0.067183)">
                            <mask id="mask-4" fill="white">
                                <use xlink:href="#path-3"></use>
                            </mask>
                            <g id="Clip-28"></g>
                            <path d="M30.5858782,0.0671827897 L31.6590541,0.163128211 C32.37393,0.218973905 33.0887891,0.262222826 33.8104254,0.31470938 L34.8988119,0.403096738 C34.914124,0.39742819 34.940768,0.400262464 34.944577,0.402033885 L34.9395089,0.403096738 L34.9914723,0.408478734 C35.1367283,0.422929024 35.4318714,0.449120174 35.4953362,0.455442176 L35.5072386,0.45684297 L35.669604,0.470279528 L35.831868,0.483716086 L36.330649,0.551318768 C36.6640119,0.600866075 36.9982113,0.658811231 37.3281602,0.721795096 L37.8192598,0.819630034 L37.8494386,0.826892042 C37.955331,0.849857681 38.286531,0.911658475 38.3596251,0.942752403 L38.3737393,0.953995613 L38.9665682,1.10524444 C40.3448154,1.47656528 41.686711,1.97613245 42.9668088,2.59130194 L43.5115644,2.86198684 L44.0802118,3.16128965 C47.2716834,4.88798719 50.1287986,7.22751592 52.6323887,9.88460563 L53.0976643,10.3864593 L53.1148114,10.4050307 C53.158708,10.4532124 53.2734446,10.5807202 53.3413178,10.6533829 L53.3815967,10.6955001 L53.8653804,11.2445095 C54.1856495,11.6135949 54.5008483,11.9885589 54.8075967,12.3677217 L55.2609591,12.9394053 L55.5975397,13.3772738 C57.0490945,15.285711 58.4004486,17.3381323 59.2731417,19.5695245 L59.4658633,20.0876541 L59.6445663,20.6261235 C60.4338129,23.1345368 60.6699427,25.7568686 60.7808388,28.3778821 L60.8044019,28.9826555 L60.8429139,29.85564 C60.9209628,31.3248473 61.0581397,32.8596704 61.1016973,34.3768655 L61.1153755,35.2844011 L61.1153755,35.5800054 L61.103858,36.1017295 C61.0818244,36.7942099 61.0317482,37.4737514 60.9376048,38.1363728 L60.8584843,38.6301041 L60.851724,38.6502589 L60.8449637,38.6704137 L60.5889645,39.1667003 C60.0923774,40.1642073 59.6888986,41.1910018 59.3900502,42.2414152 L59.2493986,42.7685639 L59.0332043,43.1985338 L58.9437612,43.6432626 C58.6949051,44.9813863 58.6229544,46.3546712 58.7723412,47.7557579 L58.8303954,48.2238064 L58.867817,48.4711341 C59.2610593,50.8521538 60.5275999,52.9532398 59.1696651,55.181396 L59.0196837,55.4123649 L58.9118859,55.5684292 C58.3913653,56.3257684 58.1606051,56.6899083 57.3077454,56.6141526 L57.1403214,56.594782 L56.8955316,56.5501726 C56.6495423,56.4937391 56.400613,56.4034454 56.1546724,56.2938031 L55.9099475,56.1782487 L55.7747416,56.1110659 L55.4521424,55.9363907 C55.1318407,55.7574157 54.8193949,55.5687665 54.5234789,55.3994658 L54.2333941,55.2376897 L53.8419593,55.0288452 C52.7926521,54.4749366 51.699205,53.9528457 50.5546263,53.6483195 L50.1229988,53.5446834 L50.1094782,53.5446834 L49.8572099,53.4372071 C47.3964965,52.4280486 44.3168482,52.2909331 42.5779038,53.7628679 L42.4028758,53.920907 C42.3887856,53.9406139 42.3561775,53.9710701 42.3328316,53.9923696 L42.3082317,54.0149629 L42.2544062,54.0733582 C42.0985408,54.2535155 41.8552783,54.6108205 41.7945979,54.7049839 L41.7809286,54.7271005 L41.6706888,54.9353049 C41.5302023,55.2217026 41.416727,55.5429359 41.3424013,55.8950235 L41.2941873,56.1648122 L41.3007342,56.1862267 C41.3087578,56.200503 41.3226883,56.2130998 41.3340582,56.2139396 L41.3481344,56.2051218 L41.3978348,56.1426185 C41.7017075,55.7692642 42.8041635,54.5239619 43.2659324,54.2344001 L43.3493173,54.1897725 L43.5744023,54.1039514 C44.31269,53.8475909 45.0072661,53.8527162 45.6809065,53.9909895 L45.9047092,54.041836 L45.9465171,54.0651619 C45.983525,54.0968077 45.9951355,54.1471657 45.9706092,54.1880576 L45.945271,54.2165113 L45.7099125,54.4130831 L45.4865724,54.6245845 L45.4865724,54.6245845 L45.2692414,54.8480295 L45.1745972,54.9555219 L44.890031,55.2666643 C44.6994752,55.4791341 44.5063842,55.7000101 44.3056879,55.9192318 L43.9983057,56.2455659 L43.84889,56.4078055 C43.6403199,56.634423 43.3966863,56.9018976 43.145992,57.2062082 L42.9570849,57.4412852 L42.7679318,57.6831432 L42.6383081,57.8512219 C41.6466953,59.1547118 40.7242032,60.7898343 41.1974006,62.013829 L41.2671461,62.1710879 C41.2862693,62.1917018 41.3247987,62.268237 41.3523749,62.3193876 L41.3751756,62.3590654 L41.4629621,62.4796848 C41.5574386,62.599669 41.6723096,62.7167702 41.8104954,62.8221945 L41.9565611,62.9234008 L42.0175053,62.9555826 C42.246113,63.0445874 42.5208962,62.8235314 42.4979096,62.5855437 L42.4839994,62.5204384 L42.4658509,62.4399372 C42.4123039,62.1134923 42.4957722,61.468195 42.5196686,61.3343477 L42.5245612,61.3111482 L42.5690689,61.1727069 L42.619676,61.0283535 L42.619676,61.0283535 L42.6732877,60.881044 L42.6665274,60.9482268 L42.6597671,61.0154096 L42.6390297,61.4234422 C42.6182876,62.1021255 42.6666366,62.7739534 42.7839287,63.4389259 L42.862576,63.8370867 L42.9177851,64.1059423 C42.9838857,64.4557905 43.0199406,64.7717984 43.0259498,65.0619285 L43.0248231,65.2747984 L43.0224992,65.3396718 C43.0191719,65.3968297 43.0126361,65.4678046 43.0052981,65.5167254 L42.9977819,65.5569662 L42.9692424,65.7042468 C42.827118,66.3286267 42.4419393,66.7740356 41.6904868,67.0754604 L41.5105167,67.14248 L41.4703754,67.1454381 C41.444175,67.1429398 41.4196562,67.132052 41.4001824,67.1160835 L41.3751756,67.0887338 L41.2801258,66.8643233 L41.1820114,66.6458847 L41.1820114,66.6458847 L41.0778578,66.4303424 L41.0389692,66.3497231 L41.0101196,66.2691037 L40.9932915,66.2347037 C40.9590143,66.1642861 40.8837146,66.0092681 40.8434282,65.9328787 L40.8209665,65.8928801 L40.7178094,65.7057636 C40.6684008,65.6234854 40.614541,65.5429767 40.557417,65.4665966 L40.4694311,65.3554178 L40.397762,65.2792773 L40.3201738,65.2120945 L40.3201738,65.2120945 L40.2395811,65.1538694 L40.1949137,65.121865 C40.0961924,65.0542496 39.955991,64.9815837 39.8590789,65.0668651 L39.8204427,65.1135597 L39.8199419,65.1264987 L39.8164366,65.1364517 L39.8164366,65.1364517 L39.8069221,65.1404329 L39.8055722,65.331017 C39.817877,65.5190213 39.8672423,65.7002536 39.9185351,65.8834208 L39.9691692,66.0675554 L40.0194865,66.3131458 C40.0810578,66.6371161 40.1185624,66.9491429 40.1080839,67.2731132 L40.0908546,67.5187036 L40.0758426,67.6388581 C40.0112471,68.0544956 39.8373522,68.20306 39.414581,68.3203733 L39.2930044,68.3517702 L39.036649,68.3935728 L38.7833282,68.41746 L38.7833282,68.41746 L38.5359864,68.4323896 L38.5059855,68.4273508 C38.4865454,68.4206326 38.468787,68.407196 38.4560734,68.3870412 L38.4412071,68.3517702 L38.4097492,68.2343247 L38.3691874,68.1198652 L38.3691874,68.1198652 L38.3195218,68.0024197 L38.2217679,67.7509041 C38.1579845,67.5837869 38.0950123,67.4183493 38.0210885,67.2579504 L37.9005186,67.021551 L37.8143223,66.8647911 C37.773587,66.7971107 37.7293084,66.7320844 37.6802522,66.6697122 L37.6029304,66.5781446 L37.5496711,66.5168739 C37.4881159,66.4480787 37.4121174,66.3737799 37.3287999,66.3468122 L37.2650508,66.3362865 L37.2032583,66.3465229 C37.0360667,66.4147152 36.9800917,66.7990256 36.960476,66.9922353 L36.9540771,67.0618606 L36.9620593,67.3002351 L36.9820598,67.5356237 L36.9820598,67.5356237 L37.0081595,67.7739982 L37.0234967,67.8944672 C37.0534221,68.143466 37.0728426,68.4348562 36.9735534,68.6611052 L36.9135154,68.7683035 L36.8575812,68.8441943 C36.8017455,68.915465 36.7439433,68.9732013 36.6638192,69.0203346 L36.5755006,69.0640421 L36.4362885,69.1127522 L36.2910674,69.1496081 L36.2910674,69.1496081 L36.1428416,69.1715346 L35.9197518,69.190562 C35.7710253,69.1968226 35.6222988,69.1921912 35.4735723,69.188408 L35.2504825,69.1848368 L35.2099207,69.1838415 L35.169359,69.1768744 L35.169359,69.1768744 L35.1287972,69.1579637 L35.0928831,69.1219556 C35.061159,69.0666907 35.0744067,68.9773359 35.0830134,68.9029987 L35.0882354,68.8354863 L35.079785,68.6205518 L35.0611942,68.4055164 L35.0116187,68.1203628 C34.9855791,67.9929643 34.9541979,67.8655659 34.9174753,67.7417062 L34.8583853,67.5590133 L34.8318099,67.5276613 C34.8204325,67.5077553 34.8099366,67.482541 34.8015326,67.462635 L34.7906472,67.4380843 L34.7231456,67.2970508 L34.6554413,67.1559166 L34.5427697,66.9279927 L34.4210843,66.7030548 L34.4210843,66.7030548 L34.2903853,66.4840887 L34.255427,66.4353488 C34.2367586,66.4161262 34.2145114,66.4004425 34.1910712,66.3894418 L34.1553146,66.3765962 L34.0795125,66.3796517 C33.9529787,66.4072692 33.8284158,66.5386967 33.7501698,66.6417234 L33.709135,66.6990736 L33.609984,66.8647911 C33.569923,66.940434 33.5352034,67.018731 33.5058254,67.0996821 L33.4657643,67.2230993 L33.4285827,67.3442404 C33.4066118,67.4252838 33.3914011,67.5071755 33.389711,67.5916116 L33.3981614,67.7203864 L33.4191634,67.9084335 L33.4792849,68.2845874 L33.4919524,68.3933517 C33.5186968,68.6495863 33.5199951,68.919368 33.3749779,69.1268329 L33.3035172,69.2117099 L33.2062849,69.2944607 C33.0063353,69.4403729 32.74707,69.5015037 32.5018212,69.5246313 L32.3569406,69.5343217 L32.1677474,69.5392335 L31.9784942,69.5292755 L31.9784942,69.5292755 L31.7892109,69.5073142 L31.6922012,69.4968548 C31.524473,69.480206 31.3320982,69.4625779 31.1987923,69.3705198 L31.1265667,69.3057658 L31.0831043,69.250762 C31.0586109,69.2112963 31.0425256,69.1668003 31.031519,69.1206499 L31.0184019,69.0506056 L31.0116416,68.8892493 L31.0048813,68.7279938 L30.9509342,68.3517702 L30.9102372,68.0292928 L30.8512123,67.6163028 C30.8225086,67.433831 30.7902261,67.2522174 30.7532253,67.0691381 L30.6940429,66.7931295 L30.677776,66.7725548 C30.6638329,66.7649967 30.6456646,66.7691956 30.6351016,66.7817924 L30.62644,66.806566 L30.5953877,67.061363 L30.5582962,67.313174 L30.5582962,67.313174 L30.51814,67.5590133 L30.4781692,67.3042163 L30.4411127,67.0524053 L30.4411127,67.0524053 L30.4099753,66.806566 L30.3994335,66.7817924 C30.385202,66.767621 30.3602969,66.7640782 30.3487338,66.7759467 L30.3425075,66.7931295 L30.2833549,67.095452 L30.2343428,67.3977746 L30.1666046,67.8143079 L30.1466693,67.9884855 L30.132683,68.1596772 L30.132683,68.1596772 L30.1126575,68.3248971 L30.0720788,68.6003465 L30.0313987,68.875796 L30.0188083,68.9684545 C30.0077842,69.0706153 30.0000275,69.1804812 29.9530061,69.2698737 L29.9097134,69.3326389 L29.85169,69.3784228 L29.7875974,69.412263 L29.7875974,69.412263 L29.7205603,69.4401314 L29.5446628,69.4816944 C29.1242818,69.5705895 28.6402854,69.598974 28.2199044,69.4846619 L28.0440068,69.4266948 L27.9733392,69.3958405 L27.9027617,69.3590144 L27.9027617,69.3590144 L27.841198,69.3192024 L27.8276774,69.3057658 L27.705992,69.1848368 L27.6924715,69.1714002 L27.6389658,69.0962395 C27.6081093,69.043333 27.5865904,68.9853879 27.5726684,68.9257632 L27.5572655,68.8354863 L27.545435,68.7414304 L27.5437449,68.6473745 L27.5412411,68.5130089 C27.5399058,68.4532909 27.5394606,68.3935728 27.5446537,68.3338548 L27.5572655,68.2442777 L27.5888974,68.0647737 C27.6100106,67.9459442 27.6294761,67.8279544 27.6371025,67.7057657 L27.6383891,67.5187036 L27.6183195,67.3478074 C27.5984611,67.2344364 27.5659272,67.122745 27.5224078,67.0160924 L27.4491008,66.8603123 L27.3979354,66.7813774 C27.3049074,66.6444655 27.1744317,66.4879668 27.0262177,66.4196088 L26.9353183,66.3900328 L26.8719086,66.389088 C26.7534293,66.4129694 26.6627613,66.5761588 26.59482,66.6911262 L26.5567417,66.7528198 L26.4495735,66.9319739 L26.3483844,67.1200857 L26.3483844,67.1200857 L26.2591535,67.3171552 L26.1684692,67.5540686 C26.0844771,67.7939918 26.0208893,68.0426219 25.9806552,68.2970565 L25.948315,68.5533186 L25.9393013,68.7180408 L25.9393013,68.885749 L25.9393013,68.885749 L25.948315,69.0504712 L25.9411322,69.0899411 C25.9318368,69.1151347 25.914091,69.1369691 25.8912751,69.1487261 L25.8536709,69.1579637 L25.6102432,69.1669914 C25.4479834,69.1716102 25.2857659,69.1720301 25.1235399,69.1598532 L24.8801883,69.1310906 L24.7645734,69.111778 C24.5728017,69.0755423 24.3879283,69.0158026 24.2444445,68.8835915 L24.1635969,68.7951766 L24.10988,68.7185463 C24.0786009,68.6694188 24.0558145,68.6228108 24.0380899,68.5703242 L24.0148704,68.4861358 L23.9958414,68.3522679 L23.9888307,68.2213858 L23.9888307,68.2213858 L23.9878292,68.0964756 L24.0088562,67.8282421 L24.0388669,67.5629945 L24.0388669,67.5629945 L24.0688175,67.3037187 L24.0688175,67.2902821 L24.0778312,67.1688555 L24.0778312,67.0444429 L24.0778312,67.0444429 L24.0688175,66.9140585 L24.0479789,66.8985225 C24.0399849,66.8909644 24.0429425,66.8884451 24.0517816,66.8876053 L24.0688175,66.8871854 L24.0463733,66.7398809 C24.032372,66.6748546 24.0130025,66.610713 23.9882648,66.5486357 L23.9471322,66.4572155 L23.9128869,66.404589 C23.8583664,66.344871 23.7717469,66.3269556 23.6931297,66.3508428 L23.6362938,66.3765962 L23.4984918,66.4917475 C23.1575588,66.8197675 22.9742532,67.339441 22.8032409,67.7882861 L22.7302789,67.9755466 L22.6695376,68.1502722 L22.6085936,68.3248971 L22.5938836,68.3544995 C22.581246,68.3733947 22.5635129,68.3897705 22.5440813,68.3985882 L22.5140846,68.4055164 L22.3234527,68.4023672 C22.1975084,68.3977484 22.073288,68.3872511 21.9474112,68.3658366 L21.7569314,68.3248971 L21.6353815,68.296336 C21.2126922,68.1885622 21.0387154,68.0400873 20.9742018,67.614845 L20.9592165,67.4918305 L20.9458603,67.1912816 C20.9432384,66.8958923 20.9718361,66.614047 21.0228044,66.3283321 L21.0809018,66.0406822 L21.1485048,65.7853876 L21.2161078,65.530093 L21.2295101,65.4694523 C21.2544452,65.3522 21.2835506,65.1758898 21.2256749,65.0843921 L21.1890666,65.046377 L21.1484541,65.0262221 L21.107943,65.0060673 L21.0538607,65.0010908 L20.9997783,65.0110438 L20.9997783,65.0110438 L20.9456959,65.0329404 L20.8881082,65.0642924 L20.8275159,65.104602 L20.8275159,65.104602 L20.7699282,65.1538694 L20.6733806,65.2372181 C20.6121112,65.2947433 20.5567486,65.3564675 20.5055858,65.4240702 L20.4317782,65.530093 L20.2991856,65.7386263 C20.21641,65.8818222 20.1437494,66.0325342 20.0744606,66.185774 L19.9722133,66.4169059 L19.8234868,66.7410628 L19.6747602,67.0752972 L19.6498316,67.1102071 C19.6303958,67.1295389 19.6058897,67.1404393 19.5796936,67.1396163 L19.5395543,67.1291778 L19.360712,67.0632772 C19.0850338,66.953774 18.8593069,66.8244686 18.6791719,66.6709855 L18.5525511,66.5512714 L18.3631276,66.3362865 L18.2796905,66.2062741 C17.9710834,65.6727879 17.9610984,64.9764177 18.1391333,64.057933 L18.1874951,63.8236502 L18.2661353,63.4255316 C18.3834057,62.7606061 18.4316935,62.0887175 18.4109988,61.4100127 L18.390304,61.001973 L18.3835437,60.9348406 L18.3767834,60.8676074 L18.4562704,61.0601045 C18.6271037,61.5086415 18.6933715,61.950721 18.6107338,62.3422787 L18.5660717,62.5068675 L18.5521037,62.5720015 C18.5289222,62.810086 18.8036892,63.0311501 19.0322954,62.9421459 L19.0932396,62.9099642 L19.2393892,62.8026706 C21.3195357,61.1547884 18.4544894,57.7679499 17.1263426,56.3398572 L17.0382447,56.2455659 L16.7494638,55.9336188 C16.278214,55.4131735 15.8513102,54.8956172 15.3800604,54.464292 L15.0912795,54.2165113 L15.0651772,54.1858529 C15.0403895,54.1408379 15.0546612,54.0829139 15.0959741,54.0557547 L15.1318412,54.041836 L15.3537852,53.9916736 C16.0218029,53.8560269 16.7103252,53.8577622 17.4417902,54.0999837 L17.6872332,54.1897725 L17.8923737,54.2894736 C18.5549805,54.6575925 19.0780091,55.3960867 19.5373039,56.0069215 L19.6881456,56.2051218 L19.7099835,56.2158858 C19.7248097,56.2171581 19.7387655,56.2074711 19.7434174,56.1919141 L19.7423632,56.1648122 L19.6962424,55.9163712 C19.4381182,54.7003942 18.7713216,53.8757812 17.8816127,53.3502293 L17.7007538,53.2490791 L17.6487265,53.2245719 C17.5756937,53.1908657 17.457249,53.1373575 17.3961783,53.1063503 L17.362739,53.0879748 L17.1077486,52.9918054 C15.3845853,52.39493 13.1282468,52.6434194 11.23595,53.4065276 L10.9403224,53.5312468 L10.9268018,53.5312468 L10.4955762,53.634883 C9.352925,53.9394091 8.26739342,54.4615 7.21136053,55.0154087 L6.816677,55.2242531 L6.59678248,55.3471805 C5.8524465,55.7730603 4.99873298,56.3427921 4.16059789,56.5353983 L3.90974966,56.5813455 L3.73222619,56.6014735 C2.88623285,56.6723313 2.64519864,56.2981048 2.13605051,55.5530056 L2.03038734,55.3990627 L1.88040593,55.169299 C0.524085856,52.9546486 1.78600352,50.8445536 2.18084757,48.4662333 L2.21967563,48.2103699 L2.27049721,47.7970392 C2.56657837,45.0535094 2.03182357,42.4134397 0.948535101,39.9569865 L0.77297226,39.5706631 L0.753306136,39.5618454 C0.741031973,39.5509282 0.731284471,39.5316131 0.729184554,39.5139776 L0.732410483,39.4900438 L0.529550897,39.07519 L0.326792715,38.6704137 L0.320032419,38.6502589 L0.313272123,38.6301041 L0.280545093,38.4434091 C-0.167159971,35.6979402 0.304862101,30.0851685 0.326061948,29.8125049 L0.326792715,29.8022855 L0.34022317,29.5305684 L0.353743762,29.2588514 L0.353743762,29.2588514 L0.367354492,28.996092 L0.39708665,28.235994 C0.44090088,27.2215364 0.503734077,26.2041028 0.613588889,25.1956767 L0.705234092,24.4412332 L0.691848706,24.4412332 L0.700231473,24.4209608 L0.718754685,24.4007892 L0.790954647,23.9205567 L0.872078201,23.44331 L0.872078201,23.44331 L0.962125345,22.9630775 L0.966533848,22.9426955 C1.01217744,22.7355688 1.37838304,21.1286597 1.66899466,20.2484461 L1.71941372,20.1010907 L1.91196698,19.5806218 C2.78325398,17.3405491 4.12507761,15.2977011 5.5853817,13.3906759 L5.92431791,12.9529762 L6.42923083,12.3171383 C7.28165687,11.2632969 8.18827368,10.2398739 9.14410466,9.2615103 L9.72346913,8.68001643 L9.74659936,8.64816681 L9.76366034,8.6312467 L9.76366034,8.6312467 L9.77768671,8.62627019 L10.3179696,8.11161912 C11.7717037,6.75353784 13.3292759,5.51146242 14.9906863,4.41979046 L15.6185826,4.01753082 L15.6490659,3.99991089 C15.7119194,3.96210761 15.8475726,3.87668845 15.8974996,3.84278566 L15.9159004,3.82941901 L16.4878665,3.49798392 L17.0657817,3.17550652 L17.0657817,3.17550652 L17.6466714,2.86198684 L17.8579307,2.76127984 L18.0793304,2.66057284 L18.1051102,2.64117007 C18.1616739,2.60851177 18.2943234,2.55301132 18.3509472,2.52638455 L18.3767834,2.51263633 L18.9239535,2.26588159 C19.8400426,1.86572287 20.7768265,1.52138659 21.7343052,1.23776945 L22.3112757,1.07492463 L22.3041369,1.06707768 C22.3119247,1.0596607 22.3576784,1.05417859 22.3800685,1.05643593 L22.3923993,1.06148808 L22.9713532,0.916387225 C23.5531454,0.779360132 24.1427935,0.666547867 24.7343692,0.577892383 L25.3263678,0.497287009 L26.2144235,0.398207324 C27.3195089,0.291330703 28.4070686,0.240509722 29.4902073,0.160322513 L30.5723576,0.0671827897 L30.5858782,0.0671827897 Z M30.7616053,48.3581854 C29.612355,47.8475962 28.3684605,47.4176264 27.3949779,48.3984951 C26.3403717,49.4465466 25.5156155,51.1261164 24.8801477,52.6713205 C24.9612713,52.536955 24.4339682,53.7865548 24.271721,54.2433978 C23.7173768,55.7348557 23.676815,57.6831566 25.4074508,58.4356039 C25.4209714,58.4490404 25.9482745,58.6237157 26.1375628,58.6505888 C26.1916451,58.6505888 26.2322069,58.6505888 26.2727687,58.6640254 C27.1516072,58.7446447 27.9628427,58.3684211 28.7335165,57.9921975 C29.7069991,57.521918 30.5182347,57.0785115 31.5998821,57.4681717 C33.0736266,58.005634 34.4392064,59.161178 36.1157599,58.4356039 C36.5348982,58.2474921 36.9540366,57.9115781 37.1974072,57.521918 C37.2785308,57.4009889 37.3326132,57.2800599 37.3866955,57.1456943 C37.4678191,56.9307094 37.5354221,56.7022879 37.5624632,56.4738664 C37.5759838,56.2723181 37.5489426,56.0842063 37.5354221,55.8826579 C37.5219015,55.6811095 37.4948603,55.4661246 37.4678191,55.2645762 C37.4002161,54.7942967 37.2920514,54.3508903 37.1298043,53.9209204 C36.9945984,53.5581334 36.8458718,53.1953463 36.7106659,52.8325592 C36.3996923,52.0666754 36.0616775,51.3007916 35.6560597,50.5617809 C35.2774831,49.8630799 34.8583448,49.191252 34.3175211,48.6000435 C34.2499181,48.5328607 34.1958358,48.4656779 34.1282328,48.3984951 C33.1547502,47.4176264 31.9108557,47.8475962 30.7616053,48.3581854 Z M5.45105662,44.0987966 C5.42401544,44.6496955 5.55922136,45.1737212 5.80259202,45.6574373 L6.01892149,46.0470975 C6.60030696,46.9876565 7.53322783,47.7804134 8.35798396,48.3447489 C9.91285207,49.3793638 11.9003791,49.8362068 13.7256591,49.3793638 C13.7527003,49.3793638 13.7391797,49.3390542 13.7256591,49.3390542 C13.0631501,49.2718714 12.4276822,49.1643789 11.8192556,49.0165768 L11.6840497,48.9762671 C10.8457729,48.7478456 10.048058,48.4119317 9.27738423,47.9416521 L9.18274008,47.8744694 C9.04753416,47.79385 8.91232824,47.7132307 8.77712232,47.6191748 C8.38502514,47.337007 8.04701033,47.0145296 7.7495573,46.6786157 L6.82437773,45.4191828 L6.95184236,45.5969728 L6.95184236,45.5969728 L7.37098072,46.1814631 L6.532704,45.0796653 C6.54622459,45.0527922 6.532704,45.0259191 6.532704,45.0124825 L6.53437773,45.0251828 L6.14060683,44.4884568 C6.0054009,44.3272181 5.87019498,44.1525428 5.72146847,43.9913041 C5.62682432,43.8838116 5.46457721,43.9778676 5.45105662,44.0987966 Z M55.3014938,43.9912907 C55.1527673,44.1525294 55.0175614,44.3137681 54.8823554,44.4884433 L53.273405,46.6786023 C52.9759519,47.0145162 52.6514577,47.3369936 52.24584,47.6191613 C52.110634,47.7132172 51.9754281,47.7938366 51.8402222,47.8744559 L51.745578,47.9416387 C50.9749043,48.4119182 50.1771893,48.7478322 49.3389126,48.9762537 L49.2037067,49.0165633 C48.59528,49.177802 47.9598122,49.2852945 47.2973032,49.3390407 C47.270262,49.3390407 47.270262,49.3793504 47.2973032,49.3793504 C49.1225831,49.8227568 51.1236308,49.3793504 52.6649783,48.3447354 C53.503255,47.7804 54.4361759,46.9876431 55.0040408,46.047084 L55.2203703,45.6574239 C55.4637409,45.1602712 55.5989468,44.6362455 55.5719057,44.0987831 C55.5583851,43.9778541 55.4096585,43.8837982 55.3014938,43.9912907 Z M7.39803543,31.4818552 C6.16766153,31.6027843 4.91024645,31.9790079 3.9502844,32.7852014 C3.58522841,33.0942422 3.26073419,33.4704658 3.00384294,33.8869991 L2.94976057,33.9676185 C2.34133392,34.9619237 2.07092208,36.1577774 2.39541629,37.2730117 C2.42245747,37.3670676 2.50358103,37.4342504 2.58470458,37.4745601 C2.63878695,37.4611235 2.70638991,37.4611235 2.76047228,37.4745601 C2.8956782,37.5014332 3.03088413,37.4073773 3.05792531,37.2730117 C3.32833716,35.5128226 4.36942276,34.6528829 5.81612613,34.3841518 C6.05949679,34.3438421 6.2217439,34.6125732 6.07301738,34.800685 C5.43754955,35.5665689 4.99137,36.4936913 4.84264349,37.4342504 C4.24773743,41.3039791 7.14114417,45.1199615 10.5077716,46.7592216 C13.1578077,48.0625677 16.2675439,48.2641161 19.0257448,47.3638667 C18.985183,47.323557 18.9581418,47.2832474 18.9987036,47.2966839 C19.052786,47.323557 19.1203889,47.323557 19.1879919,47.3101205 C20.310201,46.9338969 21.3648072,46.382998 22.2977281,45.6439873 C23.4740196,44.7168648 25.7454791,43.0372951 25.4074643,41.3039791 C25.3939437,41.2636694 25.3939437,41.2233597 25.3804231,41.1830501 C25.3398614,41.0218114 25.4750673,40.8605727 25.6373144,40.8605727 L25.9212468,40.8605727 C26.1240557,40.8471361 26.3403852,40.8471361 26.5431941,40.7933899 C26.7730441,40.7396437 26.9893736,40.6187146 27.1921825,40.5112222 C27.3949914,40.4037297 27.5978003,40.2962372 27.7870886,40.1753082 C27.9763768,40.0543792 28.1791857,39.9200136 28.3279122,39.7453384 C28.4631182,39.5840997 28.5442417,39.3825513 28.6253653,39.1944395 C28.7200094,38.9928911 28.8146536,38.7913428 28.8822565,38.5763578 C28.9228183,38.4285557 28.801133,38.2941901 28.6524065,38.3076267 C28.5172005,38.3210632 28.4225564,38.4688654 28.3414328,38.5629213 C28.2873505,38.6301041 28.2332681,38.6972868 28.1656651,38.7644696 C28.0575004,38.8853987 27.9493357,39.0063277 27.8276503,39.1138201 C27.4220326,39.4900438 26.9217707,39.785648 26.380947,39.9065771 C25.880685,40.0275061 25.3533819,40.000633 24.8666406,39.8797039 C24.6097494,39.8259577 24.3393375,39.7319018 24.0959669,39.6378459 C23.9607609,39.5840997 23.8390756,39.5303534 23.7038697,39.4766072 C23.6362667,39.4497341 23.5686638,39.4094244 23.5145814,39.3825513 C23.4875402,39.3691147 23.2036078,39.2347492 23.2171284,39.2213126 C21.770425,38.4285557 20.3507628,37.1789558 19.1609507,36.3727623 C19.0122242,36.2787064 18.8770183,36.1846505 18.7282917,36.0905946 L18.620127,35.9696656 L18.0522621,35.593442 C17.227506,35.0559796 16.3892293,34.5453904 15.5239114,34.0616744 C15.0912524,33.8198163 14.6585935,33.5913948 14.2259345,33.3629733 C13.9014403,33.2017347 13.5904667,33.0136228 13.2659725,32.8926938 C12.9549988,32.7717648 12.6440252,32.6508358 12.3330516,32.5030336 C12.022078,32.3552315 11.5082955,32.1402466 11.1838013,32.0193176 C10.561854,31.7774595 9.92638618,31.549038 9.25035657,31.4818552 C8.64192991,31.4146724 8.01998267,31.4146724 7.39803543,31.4818552 Z M51.7590851,31.4549956 C51.0965761,31.5221783 50.4611083,31.7505998 49.8256404,31.9924579 C49.5011462,32.1133869 48.9873637,32.3283718 48.6763901,32.476174 C48.3654165,32.6239761 48.0544428,32.7449051 47.7434692,32.8658341 C47.4054544,33.0001997 47.0944808,33.174875 46.7835072,33.3361137 C46.3508482,33.5645352 45.9046687,33.7929566 45.4855303,34.0348147 C44.6202124,34.5185308 43.7819357,35.02912 42.9571796,35.5665823 C42.7678913,35.6875113 42.578603,35.8084403 42.3893147,35.9428059 L42.2811499,36.0637349 L41.848491,36.3459026 C40.6586789,37.1520961 39.2525373,38.3882595 37.7923133,39.1944529 C37.8058339,39.2078895 37.5219015,39.3422551 37.4948603,39.3556916 C37.4272573,39.3825647 37.3731749,39.4228744 37.305572,39.4497475 C37.1838867,39.5034938 37.0486807,39.5706766 36.9134748,39.6109862 C36.6565836,39.7050421 36.3996923,39.799098 36.1428011,39.8528443 C35.6425391,39.9603367 35.1287566,39.9872098 34.6284947,39.8797174 C34.0741504,39.7453518 33.5874091,39.4631841 33.1817913,39.0869605 C33.060106,38.979468 32.9519413,38.858539 32.8437765,38.73761 C32.7896942,38.6704272 32.7356118,38.6032444 32.6680088,38.5360616 C32.5868853,38.4420057 32.5057617,38.2942035 32.3570352,38.280767 C32.1947881,38.2673304 32.0866234,38.401696 32.1271852,38.5494981 C32.1812675,38.7644831 32.2759117,38.9660314 32.3840764,39.1675798 C32.4787205,39.3556916 32.5463235,39.55724 32.6815294,39.7184787 C32.8302559,39.8931539 33.0330648,40.0275195 33.2223531,40.1484485 C33.4116414,40.2693776 33.6144503,40.3903066 33.8172592,40.4843625 C34.0200681,40.591855 34.2499181,40.712784 34.4662476,40.7665302 C34.6690565,40.8202764 34.885386,40.8202764 35.0881949,40.833713 L35.2774831,40.8396848 C35.3090312,40.8396848 35.3405792,40.8381918 35.3721273,40.833713 C35.547895,40.833713 35.6695803,40.9949517 35.6290185,41.1561904 C35.615498,41.1965001 35.615498,41.2368097 35.6019774,41.2771194 C35.2639626,43.0238719 37.5354221,44.6900051 38.7117136,45.6171276 C39.6446344,46.3561383 40.6992406,46.9070372 41.8214498,47.2832608 C41.8890528,47.3101339 41.9566557,47.2966974 42.0107381,47.2698242 C42.0512999,47.2563877 42.0242587,47.2966974 41.9836969,47.337007 C44.7418977,48.2238199 47.8651545,48.0222715 50.50167,46.7323619 C53.8547769,45.0796653 56.7617042,41.2771194 56.1667982,37.4073907 C56.0180717,36.4668317 55.5718921,35.5397092 54.9364243,34.7738254 C54.7876978,34.5857136 54.9499449,34.3169824 55.1933155,34.3572921 C56.6400189,34.6260232 57.6811045,35.4859629 57.9515164,37.246152 C57.9785576,37.3805176 58.1137635,37.461137 58.2489694,37.4477004 C58.3030518,37.4342638 58.3706547,37.4342638 58.4247371,37.4477004 C58.5058607,37.4073907 58.5869842,37.3402079 58.6140254,37.246152 C58.9385196,36.1443543 58.6681078,34.9350641 58.0596811,33.9407588 L58.0055987,33.8601394 C57.7351869,33.4436061 57.4242133,33.0673825 57.0591573,32.7583417 C56.1127158,31.9521482 54.8417801,31.5759246 53.6114063,31.4549956 C53.0029796,31.3878128 52.3810324,31.4012493 51.7590851,31.4549956 Z M47.5947427,20.9207207 C47.1485632,20.9475938 46.7159042,21.0147766 46.2832452,21.1088325 C45.9181893,21.1894519 45.5531333,21.3103809 45.1880773,21.4044368 C45.0393508,21.4447465 44.8906242,21.4850561 44.7554183,21.5522389 C43.1059061,22.3046862 41.8079292,23.7558344 40.4693906,24.924815 C40.3341847,25.045744 40.1854581,25.166673 40.0502522,25.287602 C39.6716756,25.6100794 39.2795785,25.9325568 38.8739607,26.2550342 C38.8604401,26.2550342 38.8604401,26.2684708 38.8469195,26.2684708 L38.2384929,26.7521868 C38.1438487,26.8328062 38.035684,26.9134255 37.9275192,26.9940449 C37.8328751,27.0612277 37.7382309,27.1284105 37.6571074,27.2090298 L37.5895044,27.2762126 C37.5624632,27.3030857 37.5219015,27.3165223 37.4948603,27.3299588 C37.4407779,27.356832 37.3866955,27.4105782 37.3461338,27.4374513 C37.237969,27.5180706 37.1433249,27.59869 37.0351601,27.6793093 C36.6295424,27.9883502 36.210404,28.297391 35.8047862,28.6064318 C35.3991685,28.9154727 34.9800301,29.2245135 34.5744123,29.5335543 C34.1687946,29.8425952 33.7496562,30.151636 33.3440385,30.4606768 C33.2899561,30.5009865 33.3440385,30.608479 33.3981208,30.5681693 C34.2093564,30.030707 35.0070713,29.4932447 35.8047862,28.9692189 L35.8318274,28.9423458 C36.0616775,28.7273609 39.8880051,26.3087804 41.8755322,25.1801096 L41.9836969,25.1129268 C42.1594646,25.0188709 42.3217117,24.9113784 42.4974794,24.8173225 C44.1740329,23.8902 45.593695,23.4064839 47.5136191,23.2318087 C47.5677015,23.2318087 47.6082633,23.2183721 47.6623457,23.2183721 L47.9868399,23.1511893 C47.9868399,23.1511893 50.5151906,22.6002904 52.0565381,23.2586818 C52.1647029,23.2989915 52.2999088,23.2318087 52.2728676,23.0974431 C52.1106205,22.4659249 51.664441,21.9015894 51.1236173,21.5656755 C50.569273,21.216325 49.8662022,21.095396 49.2307344,21.0013401 C48.6899107,20.9072841 48.1355664,20.8938476 47.5947427,20.9207207 Z M9.14219183,20.9744669 C8.50672399,21.0819594 7.7901326,21.2028884 7.24930891,21.5388024 C6.69496463,21.8747163 6.26230568,22.4390517 6.10005857,23.07057 C6.05949679,23.2049356 6.19470271,23.2721183 6.31638805,23.2318087 C7.84421497,22.613727 10.3860863,23.1511893 10.3860863,23.1511893 L10.7105805,23.191499 C10.7646629,23.191499 10.8052247,23.2049356 10.859307,23.2049356 C12.7792311,23.3796108 14.1988933,23.8767634 15.8754468,24.7904494 C16.0512145,24.8845053 16.2134616,24.9919978 16.3892293,25.0860537 L16.497394,25.1532365 C18.4849211,26.2819073 22.3112487,28.7004877 22.5410988,28.9154727 L22.5681399,28.9423458 C23.3658549,29.4798081 24.1770904,30.0172704 24.9748054,30.5412962 C25.0424083,30.5816059 25.0964907,30.48755 25.0288877,30.4338037 C24.62327,30.1247629 24.2041316,29.8157221 23.7985138,29.5066812 C23.3928961,29.1976404 22.9737577,28.8885996 22.5681399,28.5795587 C22.1625222,28.2705179 21.7433838,27.9614771 21.337766,27.6524362 C21.2296013,27.5718169 21.1349572,27.4911975 21.0267924,27.4105782 C20.9862306,27.3702685 20.9321483,27.3299588 20.8780659,27.3030857 C20.8375041,27.2896492 20.8104629,27.2762126 20.7834218,27.2493395 L20.7158188,27.1821567 C20.6346952,27.1015374 20.5400511,27.0343546 20.445407,26.9671718 C20.3372422,26.8865524 20.2425981,26.8059331 20.1344333,26.7253137 C19.9316245,26.564075 19.7288156,26.4028363 19.5260067,26.2415976 C19.5124861,26.2415976 19.5124861,26.2281611 19.4989655,26.2281611 C19.1068683,25.9056837 18.7147711,25.5966429 18.322674,25.2607289 C18.1874681,25.1397999 18.0387415,25.0188709 17.9035356,24.8979419 C16.5514764,23.7289613 15.2670201,22.2778131 13.6175079,21.5253658 C13.4823019,21.458183 13.3335754,21.4178733 13.1848489,21.3775637 C12.8197929,21.2835078 12.4547369,21.1625787 12.0896809,21.0819594 C11.657022,20.9879035 11.2108424,20.9207207 10.7781835,20.8938476 C10.2373598,20.8535379 9.69653611,20.880411 9.14219183,20.9744669 Z M48.4330329,8.53221429 C50.1501482,9.70119483 51.9889487,11.3135818 52.908349,13.2081364 C53.6790227,14.8070868 52.7596225,16.6747684 53.5978992,18.1124801 C54.3685729,19.4426993 56.3966618,17.9781145 55.3014938,16.809134 C54.6254642,16.0835598 54.5172995,15.2639298 54.1387229,14.3502439 C54.1116817,14.2830611 54.0711199,14.2024417 54.0440787,14.1352589 L53.9899964,14.0277665 C53.638461,13.2887558 53.138199,12.6169279 52.6379371,11.9719731 C51.5833309,10.6148808 50.352957,9.53995613 48.9062537,8.65314331 L48.7169654,8.54565085 L48.5006359,8.41128527 C48.4195123,8.37097559 48.3519094,8.47846806 48.4330329,8.53221429 Z M13.0226018,8.41128527 C11.3866101,9.33840776 10.0345509,10.4939517 8.88530057,11.9719731 C8.3174357,12.7109838 7.74957082,13.4768676 7.39803543,14.3502439 C7.01945884,15.2639298 6.9248147,16.0835598 6.23526449,16.809134 C5.14009652,17.964678 7.15466477,19.4426993 7.93885912,18.1124801 C8.77713584,16.6747684 7.85773556,14.8070868 8.62840932,13.2081364 C9.20979479,11.9988462 10.1697568,10.910485 11.224363,9.98336254 C11.8327897,9.44590023 12.4682575,8.96218414 13.0902048,8.53221429 C13.1713283,8.47846806 13.1037254,8.35753903 13.0226018,8.41128527 Z" id="Combined-Shape" fill="#FFFFFF" mask="url(#mask-4)"></path>
                        </g>
                        <g id="Group-32" transform="translate(37.452041, 57.441285)">
                            <mask id="mask-6" fill="white">
                                <use xlink:href="#path-5"></use>
                            </mask>
                            <g id="Clip-31"></g>
                            <path d="M38.8625764,0.105678528 L38.8875218,0.107492463 L38.7626911,0.313628546 C38.3304547,1.07436478 38.176564,1.89343496 38.2385334,2.91573307 L38.2385334,2.91573307 L38.252054,3.07697177 L38.2917847,3.41969288 C38.5599399,5.22988959 39.6812601,6.77123481 39.4013043,8.69345298 L39.4013043,8.69345298 L39.4087807,8.70937779 C39.4177544,8.7203261 39.4327172,8.7292838 39.4417309,8.7203261 L39.4417309,8.7203261 L39.5585403,8.56965562 C39.9942103,7.97137713 40.0575731,7.41801356 39.9826898,6.62422306 L39.9826898,6.62422306 L39.9359891,6.29864918 C39.7747064,5.43384356 39.3487243,4.59380986 39.3607426,3.72192655 L39.3607426,3.72192655 L39.3722844,3.52406208 C39.4741196,2.5408741 40.2242352,1.6543762 41.0101196,1.07492463 L41.0101196,1.07492463 L41.0694362,1.04789406 C41.2480271,0.992415771 41.6828874,0.990946148 41.8483963,1.06148808 L41.8483963,1.06148808 L41.6605912,1.41665819 C39.8658303,5.0337177 40.5339811,10.5663358 40.44239,13.9471471 L40.44239,13.9471471 L40.4278378,14.4303656 C40.416791,14.7518477 40.401738,15.0713391 40.374787,15.3848588 L40.374787,15.3848588 L40.374787,15.4520416 L40.3470022,15.7123615 C40.252696,16.4880002 40.054349,17.2135744 39.6041132,17.8303124 L39.6041132,17.8303124 L39.4959485,17.9781145 L39.4130842,18.0788887 L39.4130842,18.0788887 L39.3201808,18.1796629 L39.2255366,18.2737188 L39.0852931,18.4041032 C38.988115,18.4887037 38.8829248,18.5693231 38.7658365,18.6499424 L38.7658365,18.6499424 L38.4873824,18.8330777 C38.2970626,18.9515185 38.0987305,19.0619969 37.9005186,19.1605316 L37.9005186,19.1605316 L37.6977097,19.2680241 L37.2409516,19.4831334 C36.4744717,19.8327327 35.6876483,20.1481186 34.9665501,20.5848068 L34.9665501,20.5848068 L34.5864186,20.8239355 C34.2118053,21.0702024 33.85438,21.337254 33.5198467,21.6194217 L33.5198467,21.6194217 L33.5980401,21.3817161 C33.9751427,20.2794087 34.5319532,19.2769818 35.6424445,18.4618306 L35.6424445,18.4618306 L35.6786734,18.4278671 C35.7418788,18.3507733 35.7467462,18.2257311 35.6424445,18.1796629 L35.6424445,18.1796629 L35.4901257,18.1143751 C34.7875969,17.8432712 34.2003742,18.0372354 33.6954792,18.4887037 L33.6954792,18.4887037 L33.6008351,18.5693231 L33.406775,18.777193 C32.2689485,20.097592 31.6049039,22.6823242 31.2078254,23.6752151 L31.2078254,23.6752151 L31.0975455,23.9327404 C30.0441889,26.3008559 28.3134862,27.674676 25.6373414,27.9211674 L25.6373414,27.9211674 L24.8756808,27.9704348 C23.5893435,28.0264204 22.2278762,27.9704348 20.9320401,28.0824061 L20.9320401,28.0824061 L20.3598148,28.0414666 C19.7837616,28.0093448 19.1981256,28.0017867 18.6200188,28.0017867 L18.6200188,28.0017867 L18.3631276,28.0017867 L17.8185604,27.9986375 C17.2773395,27.9917093 16.7474506,27.9715545 16.2405298,27.9211674 L16.2405298,27.9211674 L15.9573581,27.8904036 C13.3475321,27.5627101 11.662047,26.1012088 10.6700458,23.6752151 L10.6700458,23.6752151 L10.6304096,23.5763707 C9.99734932,21.9542451 8.79039897,16.9429397 6.23515633,18.1796629 L6.23515633,18.1796629 L6.19188176,18.2086906 C6.12260981,18.2775578 6.15414866,18.4042454 6.23515633,18.4618306 L6.23515633,18.4618306 L6.45077861,18.626166 C6.93678,19.0167185 7.3051084,19.4561359 7.60087135,19.9264154 L7.60087135,19.9264154 L7.66842361,19.9247526 L7.66842361,19.9247526 L7.73607727,19.9131132 L7.72127011,19.946207 C7.70222509,19.9726036 7.67175306,19.9801616 7.64143313,19.9801616 L7.64143313,19.9801616 L7.81848582,20.2911373 C8.04214022,20.7116479 8.21730219,21.1545168 8.35802452,21.6059852 L8.35802452,21.6059852 L8.01027277,21.3290661 C7.6591282,21.0576056 7.29655662,20.8031508 6.91132115,20.5713702 L6.91132115,20.5713702 L6.49837295,20.3404605 C5.37946141,19.7512425 4.1334704,19.3531223 3.11203472,18.6365059 L3.11203472,18.6365059 L2.92494001,18.4965851 C1.48828211,17.3545507 1.47374996,15.6750885 1.42196069,13.9337106 L1.42196069,13.9337106 L1.41076395,13.3110101 C1.40759506,12.6899892 1.42534084,12.0727473 1.43548128,11.4479474 L1.43548128,11.4479474 L1.45141054,10.4974353 C1.46238726,9.86541943 1.47140099,9.23539415 1.46238726,8.59939708 L1.46238726,8.59939708 L1.4467752,7.87613236 C1.42526478,7.1549671 1.38477906,6.43947039 1.31379595,5.72397368 L1.31379595,5.72397368 L1.26060556,5.25481387 C1.16197097,4.47474703 1.01183606,3.70401114 0.786492852,2.94260619 L0.786492852,2.94260619 L0.664698275,2.54950625 C0.491197709,2.02838279 0.272683305,1.52101836 0.00216329476,1.04805152 L0.00216329476,1.04805152 L0.100908687,1.00724419 C0.169052472,0.979375778 0.241162297,0.949516761 0.313272123,0.913685939 L0.313272123,0.913685939 L0.389566446,0.888865631 C0.519423597,0.861805896 0.660187986,0.904728234 0.77297226,0.994305287 L0.77297226,0.994305287 L0.813517136,1.02789668 L0.813517136,1.02789668 L0.853960607,1.06148808 L1.00827628,1.18141001 C1.77714031,1.80086617 2.49093251,2.71334492 2.50360807,3.70848999 L2.50360807,3.70848999 L2.48895167,4.03450623 C2.4024273,4.90152363 1.96566877,5.7508468 1.88166082,6.6107865 L1.88166082,6.6107865 L1.86595552,6.80461053 C1.81573794,7.5619994 1.92326265,8.11154667 2.42248452,8.70688954 L2.42248452,8.70688954 L2.43891454,8.71186604 C2.45089278,8.70987544 2.46291109,8.69793184 2.46291109,8.68001643 L2.46291109,8.68001643 L2.43195791,8.40085771 C2.34542194,7.29589195 2.6938116,6.32655162 3.03091117,5.3343135 L3.03091117,5.3343135 L3.14537264,5.00012319 C3.37044911,4.3309591 3.56582443,3.65474376 3.61229663,2.92916963 L3.61229663,2.92916963 L3.5730003,2.78136749 C3.54384019,2.62768686 3.54127972,2.4588901 3.53103787,2.29765141 L3.53103787,2.29765141 L3.51148829,2.0332745 C3.44301214,1.33953525 3.2426136,0.733158319 2.88218465,0.147802137 L2.88218465,0.147802137 L2.96297073,0.141137605 C3.06980721,0.144577363 3.17141716,0.196173746 3.24724064,0.282167717 L3.24724064,0.282167717 L3.38489255,0.434004758 C4.07595788,1.18498894 4.79450342,1.82821166 4.88323231,3.05009865 L4.88323231,3.05009865 L4.89771733,3.37961687 C4.90409742,4.25341706 4.66239597,5.08946956 4.41001158,5.92552205 L4.41001158,5.92552205 L3.96383203,7.87382295 L3.94031882,8.14278127 C3.87408565,9.28913536 4.26418233,10.195593 4.82914994,11.2060893 L4.82914994,11.2060893 L5.31667926,12.0987806 C5.80593668,12.9956709 6.30289449,13.9001192 6.83019759,14.7667772 L6.83019759,14.7667772 L6.84371818,14.7757349 C6.85273191,14.7787208 6.86174564,14.7757349 6.87075937,14.7667772 L6.87075937,14.7667772 L6.96788978,14.6005785 C7.3212591,13.9285427 7.26077645,13.1719611 7.07356825,12.4153795 L7.07356825,12.4153795 L7.07102344,12.3277873 C7.06239583,11.9439346 7.09467969,11.5170497 7.54665378,11.5420033 L7.54665378,11.5420033 L7.64946194,11.5623286 C8.52984204,11.8339304 9.97828549,14.5972698 10.264428,15.0623814 L10.264428,15.0623814 L10.2862773,15.0867822 C10.3217553,15.1091407 10.378001,15.0919419 10.3996339,15.0489449 L10.3996339,15.0489449 L10.4854052,14.7989556 C10.5652612,14.5501883 10.6261039,14.3032159 10.6565252,14.041203 L10.6565252,14.041203 L10.6625344,13.9197764 C10.6625344,13.8381617 10.6565252,13.7545565 10.6565252,13.6649794 L10.6565252,13.6649794 L10.6558762,13.5938194 C10.6554436,13.4919166 10.6619334,13.3693751 10.7376488,13.3156289 L10.7376488,13.3156289 L10.7821866,13.2897859 C10.8142054,13.2739009 10.8502302,13.262017 10.8863753,13.262017 L10.8863753,13.262017 L11.0472269,13.2403753 C11.4834246,13.2081364 11.9694048,13.3753469 12.3060375,13.6381063 L12.3060375,13.6381063 L12.4470647,13.7665001 C12.6695912,13.9923089 12.8310871,14.2741034 12.9550259,14.5652288 L12.9550259,14.5652288 L13.1352404,14.9474541 C13.258428,15.1982997 13.3876848,15.4431735 13.5228908,15.6938997 L13.5228908,15.6938997 L13.5521974,15.7306927 C13.6287021,15.7971932 13.7543126,15.7325298 13.7662614,15.6267169 L13.7662614,15.6267169 L13.7937061,15.3829693 C13.8278984,15.1379621 13.8810851,14.8910653 13.9420291,14.6592847 L13.9420291,14.6592847 L13.9653239,14.5665559 C14.0301634,14.3011424 14.1223037,13.9083304 14.3746881,13.8127816 L14.3746881,13.8127816 L14.4427918,13.7938708 C14.488862,13.7859084 14.5369352,13.7859084 14.5910176,13.7859084 L14.5910176,13.7859084 L14.7409324,13.8057221 C15.07459,13.8738759 15.3008486,14.0899106 15.537459,14.3368073 L15.537459,14.3368073 L15.970118,14.7802137 L16.1390725,14.9793215 C16.5039701,15.4604395 16.6799491,16.0482889 17.0112036,16.5538394 L17.0112036,16.5538394 L17.0329998,16.5782402 C17.0684389,16.6005986 17.1247495,16.5833998 17.1462743,16.5404028 L17.1462743,16.5404028 L17.2280609,16.2248049 C17.3388562,15.8030045 17.4600872,15.3794842 17.6331508,14.9817621 L17.6331508,14.9817621 L17.679315,14.8823002 C17.8911458,14.4457394 18.2570296,13.9529057 18.8094423,14.0277665 L18.8094423,14.0277665 L18.938676,14.0573689 C19.0654125,14.0957891 19.1846388,14.1587729 19.2961837,14.2293149 L19.2961837,14.2293149 L19.4548827,14.3531427 C19.7647108,14.6173297 20.0262763,14.9760036 20.1884075,15.3445492 L20.1884075,15.3445492 L20.3110161,15.6512806 C20.4251531,15.961791 20.5164171,16.2817491 20.6076811,16.594149 L20.6076811,16.594149 L20.6701631,16.8360071 L20.6701631,16.8360071 L20.742887,17.0778651 L20.7503985,17.0898087 C20.7594122,17.0957805 20.7744351,17.0957805 20.7834488,17.0778651 L20.7834488,17.0778651 L20.8239599,17.0090028 L20.8239599,17.0090028 L20.8645724,16.930063 L20.9050834,16.9989254 L20.9050834,16.9989254 L20.9456959,17.0778651 L20.9592165,17.0868228 C20.9682302,17.0898087 20.977244,17.0868228 20.9862577,17.0778651 L20.9862577,17.0778651 L21.036064,16.9423378 C21.3923866,15.9198828 21.5717581,14.2982502 22.8520994,14.041203 L22.8520994,14.041203 L22.9833428,14.0240885 C24.0063087,13.9678072 24.3880333,15.8051544 24.5826,16.5404028 L24.5826,16.5404028 L24.5979735,16.572758 C24.6269962,16.6054358 24.6854917,16.5968364 24.7179412,16.5538394 L24.7179412,16.5538394 L24.8450998,16.3443286 C24.9251818,16.20001 24.9972315,16.047729 25.0693413,15.895448 L25.0693413,15.895448 L25.1500543,15.7337117 C25.2031652,15.6252239 25.2542129,15.5147456 25.2991914,15.3982954 L25.2991914,15.3982954 L25.3821233,15.2370567 L25.3821233,15.2370567 L25.4750943,15.075818 L25.5151253,15.026053 C25.5411349,14.9951987 25.5651415,14.9683255 25.5832591,14.9414524 L25.5832591,14.9414524 L25.6242916,14.8872085 C25.6523042,14.8503824 25.6823199,14.8115657 25.718465,14.7667772 L25.718465,14.7667772 L25.8235901,14.6324116 C25.8926553,14.5428345 25.9617004,14.4532575 26.042824,14.3636804 L26.042824,14.3636804 L26.1459861,14.256188 L26.1459861,14.256188 L26.2592887,14.1486955 L26.2738108,14.1377771 C26.2908367,14.124868 26.3178779,14.1039966 26.3268916,14.0949493 L26.3268916,14.0949493 L26.4147755,14.0361643 L26.4147755,14.0361643 L26.5026593,13.9874568 L26.6553319,13.9083304 C26.7594905,13.8575701 26.8677153,13.8127816 26.9758801,13.7859084 L26.9758801,13.7859084 L27.0434323,13.7674332 L27.0434323,13.7674332 L27.111086,13.7590353 L27.1691694,13.7516183 C27.247909,13.7434489 27.3300925,13.7455988 27.3948832,13.799345 L27.3948832,13.799345 L27.4675889,13.8610536 C27.5106946,13.9068375 27.5437449,13.9605837 27.5707861,14.0143299 L27.5707861,14.0143299 L27.6542354,14.2142722 C27.8138809,14.6422833 27.9281161,15.2197811 27.9628833,15.5998438 L27.9628833,15.5998438 L27.9689405,15.6330589 C27.9845162,15.6777758 28.0277821,15.7207728 28.071048,15.7207728 L28.071048,15.7207728 L28.1151782,15.7212028 C28.1683909,15.7121734 28.2008187,15.6670266 28.2331599,15.6132803 L28.2331599,15.6132803 L28.3909953,15.340568 C28.493191,15.1564373 28.5893374,14.9683255 28.6794747,14.7802137 L28.6794747,14.7802137 L28.7523855,14.620917 C28.9167188,14.2538786 29.051291,13.920274 29.3825455,13.6381063 L29.3825455,13.6381063 L29.4942859,13.552712 C29.8820252,13.2773181 30.4150271,13.1018655 30.8698106,13.2484461 L30.8698106,13.2484461 L30.9484947,13.2839455 C31.1543096,13.4111628 31.0996607,13.7146947 31.0996607,13.920274 L31.0996607,13.920274 L31.1093004,14.1092567 C31.140598,14.4252647 31.2438804,14.7443829 31.356552,15.0355083 L31.356552,15.0355083 L31.3719113,15.0627039 C31.4008995,15.0919419 31.4593085,15.0919419 31.4917579,15.0489449 L31.4917579,15.0489449 L31.6260985,14.8280468 C31.8000274,14.5292135 31.951458,14.2131641 32.0596228,13.87983 L32.0596228,13.87983 L32.1107487,13.7110413 C32.2122123,13.3808922 32.316514,13.092966 32.5598847,12.8050397 L32.5598847,12.8050397 L32.658094,12.6811567 C33.0572921,12.1753501 33.5363626,11.5647421 34.2229175,11.5151301 L34.2229175,11.5151301 L34.3199415,11.5146845 C34.7095892,11.5472134 34.7086834,12.0142023 34.696003,12.3885064 L34.696003,12.3885064 L34.6520339,12.5776029 C34.4880299,13.3335973 34.4744837,14.0825463 34.8989471,14.7399041 L34.8989471,14.7399041 L34.9123726,14.7488618 C34.9213462,14.7518477 34.93036,14.7488618 34.9393737,14.7399041 L34.9393737,14.7399041 L35.4555012,13.8642184 C35.9619276,12.9805547 36.4436748,12.0761064 36.9405566,11.1792162 L36.9405566,11.1792162 L37.0676994,10.9450166 C37.6040824,9.93770567 37.9438521,9.01976939 37.8058745,7.84694983 L37.8058745,7.84694983 L37.7555494,7.49762381 C37.4979395,5.99181364 36.7608003,4.58282601 36.8864742,3.02322554 L36.8864742,3.02322554 L36.9124005,2.78414272 C37.0820871,1.62671578 37.8379859,1.02285797 38.5224659,0.241858043 C38.6054823,0.147667772 38.7195961,0.105073883 38.8376309,0.105073883 L38.8376309,0.105073883 L38.8625764,0.105678528 L38.8625764,0.105678528 Z M12.9955471,21.8344201 C14.158318,24.0111425 16.1458451,25.2741789 18.3767428,26.2550476 C18.4984282,26.3087939 18.6201135,26.3625401 18.7553194,26.4028498 C19.4043078,26.79251 20.2696257,26.9268755 21.1484642,26.8865659 C22.0273027,26.9268755 22.8926206,26.8059465 23.5416091,26.4028498 C23.676815,26.3491035 23.7985003,26.3087939 23.9201856,26.2550476 C24.1500357,26.1475552 24.3798858,26.0534993 24.5962153,25.9325702 L24.7584624,25.8519509 C24.7855036,25.8385143 24.8125447,25.8250778 24.8395859,25.8116412 L26.1240422,25.1532499 C26.6513453,24.8173359 27.6518691,23.9573962 27.6789103,23.9708328 C28.3143781,23.3796242 28.8687224,22.6943598 29.3013814,21.8747298 C29.4636285,21.5791255 29.0174489,21.3238309 28.8552018,21.6059986 C28.6523929,21.9687857 28.4090223,22.3315727 28.1386104,22.6674867 C28.2467752,22.6406136 27.124566,23.782721 26.5161394,24.1051984 C25.9753157,24.3873661 24.7855036,24.6560972 24.7990241,24.5889145 C24.7855036,24.6157876 24.5286123,24.602351 24.5015711,24.602351 L24.1770769,24.602351 C24.0689122,24.602351 23.9607474,24.602351 23.8525827,24.5889145 C23.7444179,24.5754779 23.6632944,24.5486048 23.5551297,24.5082951 C23.3523208,24.4142392 23.1495119,24.3470564 22.9331824,24.3067467 C22.5681264,24.2395639 22.1760292,24.2530005 21.7974527,24.2530005 C21.4053555,24.2530005 21.0132583,24.2395639 20.6346817,24.2395639 L20.0532963,24.2395639 C19.8910492,24.2395639 19.728802,24.2530005 19.5665549,24.2664371 C19.4043078,24.2933102 19.2285401,24.3201833 19.066293,24.360493 C18.9851695,24.3873661 18.9040459,24.4142392 18.8229224,24.4411123 C18.7823606,24.4545489 18.7417988,24.481422 18.701237,24.4948585 C18.6741959,24.5082951 18.6201135,24.5486048 18.5930723,24.5486048 C17.6331102,24.6157876 16.71371,24.5754779 15.7807891,24.0648887 C14.7667447,23.5139898 14.0095915,22.5331211 13.4417266,21.5656889 C13.2659589,21.2700846 12.8333,21.5388158 12.9955471,21.8344201 Z" id="Combined-Shape" fill="#FFFFFF" mask="url(#mask-6)"></path>
                        </g>
                        <g id="Group-53" transform="translate(33.015715, 43.397849)"></g>
                    </g>
                </g>
            </g>
        </g>
    </g>
</svg>