<?xml version="1.0" encoding="utf-8"?>
<!-- Generator: Adobe Illustrator 23.0.1, SVG Export Plug-In . SVG Version: 6.00 Build 0)  -->
<svg version="1.1" id="Layer_2" xmlns="http://www.w3.org/2000/svg" xmlns:xlink="http://www.w3.org/1999/xlink" x="0px" y="0px"
	 viewBox="0 0 202.4 210.6" style="enable-background:new 0 0 202.4 210.6;" xml:space="preserve">
<style type="text/css">
	.st0{fill:#64C5F2;}
	.st1{fill:url(#SVGID_1_);}
	.st2{clip-path:url(#SVGID_3_);fill:url(#SVGID_4_);}
</style>
<circle class="st0" cx="176.3" cy="146.5" r="4.9"/>
<path class="st0" d="M157.6,160.4c1-0.9,3.2-2.9,4.3-3.7c2-1.3,4.1-2.3,5.9,0.1c2.7,3.4-1.3,7-3.5,9.4c-1.6,1.7-3.4,3.4-5.2,4.9
	c-2.3,1.8-4.8,4.7-7.9,3.1c-2-1-2.8-3.2-1.7-5.2c0.6-1.1,1.6-2.1,2.5-3C153.8,164.2,155.8,162.1,157.6,160.4z"/>
<path class="st0" d="M192.8,146.3c0.6-0.8,1.2-1.7,1.8-2.5c1.4-2,2.9-2.8,5.5-1.4c3.8,2,2,5.7,0.5,8.4c-2.1,4-4.9,7.5-7.8,11
	c-2.3,2.9-5.7,9.3-10.4,6.2c-2.3-1.5-2.1-4.2-0.8-6.2c2.1-3.4,4.9-6.3,7.1-9.6c0.6-1,1-1.5,1.4-2c0.5-0.7,1-1.4,1.5-2.1
	C192,147.5,192.4,146.9,192.8,146.3z"/>
<linearGradient id="SVGID_1_" gradientUnits="userSpaceOnUse" x1="4.729044e-05" y1="105.3165" x2="177.31" y2="105.3165">
	<stop  offset="0" style="stop-color:#CEEBF9"/>
	<stop  offset="1" style="stop-color:#3BB8ED"/>
</linearGradient>
<path class="st1" d="M177.2,175.6c-0.2-1-0.9-1.9-1.7-2.5c-2.9-2.2-4.8,0.3-6.9,1.9c-2.2,1.8-4.5,3.5-6.9,5.2
	c-13.5,9.8-28.5,17.8-45.3,19.9c-12.4,1.6-25.1,0.6-37.3-2.1c-3.7-0.8-7.3-1.5-10.8-3c-3.5-1.5-7.4-2.9-10.8-4.7
	c-2.9-1.5-7-4.7-9.5-6.8c-1.7-1.4-2.7-4.4-0.9-6.8c1.6-2.1,3.8-2.5,6.4-1.1c5.1,2.8,9.5,6.7,14.9,9.2c5.3,2.5,11,4.3,16.7,5.5
	c11.6,2.4,23.6,2.2,35.2-0.2c1.3-0.3,7.9-1.6,11.3-3.1c5-2,12.6-4.4,9.9-9.5c-1.3-2.3-2.9-2-5.8-0.9c-2.8,1-4.2,1.6-7.3,2.8
	c-5.7,2.2-12.2,3.4-18.3,3.8c-6.3,0.5-12.7-0.2-18.9-1.1c-10-1.5-19.5-6-28.4-10.7c-6.1-3.3-12.2-8.9-16.6-14.2
	c-4-4.8-7.1-10.9-10.2-16.3c-1.4-2.5-3.3-6.8-0.8-9.3c0.6-0.6,2-1,2.9-0.9c4.8,0.7,5.1,5.6,7,9c1.9,3.3,4.1,6.4,6.5,9.3
	c9.6,11.4,24.3,20.5,39.2,22.7c10.5,1.6,22.1,1.6,32.3-1.5c3.9-1.2,16.6-6.1,13.8-10.7c-2.5-4-6.3-1.6-9.2-0.1
	c-14.6,7.2-32.4,6.9-47.2,0.2c-16.1-7.3-30.1-22.4-32.5-40.5c-1.4-10.6-1-22.8,3.5-32.6c1.8-3.9,4-7.6,6.6-11
	c1.8-2.3,5.7-8.5,9.1-7.9c1.4,0.3,2.8,1.1,3.6,2.3c2.6,4.1-4.3,10.3-6.5,13.2c-6.9,9.2-9.2,20.5-8.3,31.9c0.4,5.7,2.8,11.6,5.7,16.6
	c2.4,4.2,5.8,8.3,9.5,11.5c3.8,3.4,9.4,6.6,14.1,8.7c4.5,2,11.9,3.9,16.9,3.1c-0.4-1.6-3.3-4.3-4.5-6.4c-2.9-5.3-6.5-11-7.7-17
	c-1.2-6.3-2-14.1-0.7-20.3c1.7-8.3,7.6-15.8,12.6-22.7L98,77.9c8.5,8.3,17.3,16.4,25.6,24.9c4.2,4.3,8.3,8.8,12.3,13.2
	c3.3,3.7,8,7.3,12.8,3.7c0.4-0.3,1.9-1.7,2.5-1.3c0.4,0.2,0.4,1,0.8,1.3c1,0.9,2.9,0.5,4,0.3c2.2-0.3,4.3-0.6,6.4-1.2
	c4.9-1.5,8.7-5.3,11.1-9.8c3.5-6.8,0.6-11.9-3.8-17.3c-10.8-13.2-18.7-28.8-27.4-43.5c-2.1-3.5-4.2-7.1-6.3-10.6
	c-0.3-0.4-0.3-1-0.1-1.4l11-23.5l-15.4,2.9c-0.4,0.1-0.8-0.3-0.8-0.7l1.3-15l-11.2,6.4c-0.7,0.4-1.5,0.6-2.2,0.5
	c-3.3-0.4-7.7-1.4-11.3-1.8c-4.7-0.5-8.6-0.1-12.5,0.2c0.5,0,5,2.1,6.5,3.7c0.2,0.2,0,0.5-0.3,0.4c-1.9-0.6-3.3-1-7.1-1.3
	C92,7.9,89.6,8,87.4,8c-4.7,0.2-9.8,1.4-14.5,2.2c1.4-0.2,7.4,1.5,10.9,3.3c3,1.6,3.5,1.9,4.9,2.7c0.3,0.2,0.2,0.7-0.2,0.7
	c-5.8,0.1-11.6-0.1-17.4,0c-8.9,0.3-12.9,0.8-19.7,2.8c3.1,0.4,6.9,1.1,9.8,2.1c1.5,0.6,2.5,1,3.2,1.3c0.4,0.2,0.3,0.7-0.1,0.8
	c-8.1,1.6-16.6,2.7-24.1,6.2c-7.4,3.4-13.3,9-18.3,15.3C9.2,61.9,2.5,82.1,0.5,102.6c-1.6,16.3,0.2,32.5,7.6,47.3
	c7.1,14.2,17.6,27.5,30,37.4c9.8,7.8,20.8,14,32.6,18.3c10.6,3.8,21.3,4.9,32.5,5c15.4,0.2,29.6-3,43.4-9.7c6-3,12-6.6,17.5-10.6
	c2.8-2.1,5.6-4.4,8.2-6.8C174.3,181.5,177.9,178.9,177.2,175.6z M28.9,102.5c0.2-2.1,0.3-4.6,0.9-7.9c0.5-3,1.7-6.9,2.3-8.3
	c0.3-0.8,0.7-1.7,1.2-2.4c0.7-1.1,1.9-1.7,3.1-1.6c1,0.1,2.4,0.3,3.2,1.2c1.6,1.6,1.2,3.7,0.6,6.8s-1.4,6.1-1.7,8.5
	c-0.3,2.4-0.7,7.2-0.9,8.7c-0.2,1.5-1.1,5.5-3.5,5.5c-2.7,0-4-0.3-4.7-2.4C28.7,108.4,28.6,104.6,28.9,102.5z M37.1,163.8
	c-0.7,1.8-1.6,3-4.4,3c-3.9,0-5.4-2.9-6.6-4.5c-2.1-2.8-3.6-5.9-6.5-11.7c-3.2-6.1-5-11.8-6.3-17c-0.8-3.3-1.3-6.6-1.5-10
	c-0.4-5.6-0.2-9,0.1-10.7c0.1-0.9,0.2-3.3,0.6-4.4c0.6-1.6,1.8-3.2,3.5-3.3c0.9-0.1,2.6,0.5,3.6,1.5c1.9,1.9,2.4,5.1,2.4,14.2
	c0,0-0.3,5.7,1.2,11.3c1.2,4.6,1.7,6.6,3,9.2c1.3,2.7,3.4,6.7,4.6,8.7c1.2,2,3.3,5.6,4.5,7.7C36.5,160.2,37.9,161.6,37.1,163.8z"/>
<g>
	<defs>
		<circle id="SVGID_2_" cx="103.9" cy="107.4" r="55.1"/>
	</defs>
	<clipPath id="SVGID_3_">
		<use xlink:href="#SVGID_2_"  style="overflow:visible;"/>
	</clipPath>
	<linearGradient id="SVGID_4_" gradientUnits="userSpaceOnUse" x1="73.9063" y1="53.1188" x2="113.4703" y2="225.9584">
		<stop  offset="0" style="stop-color:#5749A0"/>
		<stop  offset="0.484" style="stop-color:#43B9EB"/>
	</linearGradient>
	<path class="st2" d="M98,77.9c8.5,8.3,17.3,16.4,25.6,24.9c4.2,4.3,8.3,8.8,12.3,13.2c3.3,3.7,8,7.3,12.8,3.7
		c0.4-0.3,1.9-1.7,2.5-1.3c0.4,0.2,0.4,1,0.8,1.3c1,0.9,2.9,0.5,4,0.3c2.2-0.3,4.3-0.6,6.4-1.2c4.9-1.5,8.7-5.3,11.1-9.8
		c3.5-6.8,0.6-11.9-3.8-17.3c-10.8-13.2-18.7-28.8-27.4-43.5c-2.2-3.8-4.4-7.5-6.7-11.3c0,0,11.4-24.3,11.4-24.3l-16.2,3.1L132.3,0
		L120,7l-23-1.1l3.5,3.2l-28.1,1l18.2,6.6l-39.3,3.1c0,0,16.1,3.5,16.1,3.5c-8.9,2-18.8,2.9-27.3,6.8c-7.4,3.4-13.3,9-18.3,15.3
		C9.2,61.9,2.5,82.1,0.5,102.6c-1.6,16.3,0.2,32.5,7.6,47.3c7.1,14.2,17.6,27.5,30,37.4c9.8,7.8,20.8,14,32.6,18.3
		c10.6,3.8,21.3,4.9,32.5,5c15.4,0.2,29.6-3,43.4-9.7c6-3,12-6.6,17.5-10.6c2.8-2.1,5.6-4.4,8.2-6.8c2.2-2,6-4.7,5-8.2
		c-0.3-1-1-1.8-1.9-2.4c-2.7-1.8-4.6,0.5-6.6,2.1c-2.2,1.8-4.5,3.5-6.9,5.2c-13.5,9.8-28.5,17.8-45.3,19.9
		c-12.4,1.6-25.1,0.6-37.3-2.1c-3.7-0.8-7.4-2.1-10.9-3.6c-3.5-1.5-6.9-3.2-10.3-5c-3.1-1.7-7.5-3.4-10-5.9c-1.6-1.6-2.6-4.6-2-6.8
		c1-3.6,5-2.6,7.5-1.2c5.1,2.8,9.5,6.7,14.9,9.2c5.3,2.5,11,4.3,16.7,5.5c11.6,2.4,23.6,2.2,35.2-0.2c1.3-0.3,2.5-0.6,3.8-0.9
		c4.6-1.2,20.5-4.7,17.2-12.3c-2.1-4.7-10.5,0.5-13.3,1.6c-5.7,2.2-11.8,4.2-17.9,4.7c-6.3,0.5-12.7-0.2-18.9-1.1
		c-10-1.5-19.5-6-28.4-10.7c-6.1-3.3-12.2-8.9-16.6-14.2c-4-4.8-7.1-10.9-10.2-16.3c-1.4-2.5-3.3-6.6-0.9-9.2
		c0.8-0.9,2.1-1.2,3.3-0.9c4.5,0.9,4.8,5.6,6.7,8.9c1.9,3.3,4.1,6.4,6.5,9.3c9.6,11.4,24.3,20.5,39.2,22.7
		c10.5,1.6,22.1,1.6,32.3-1.5c3.9-1.2,15.8-4.9,13.8-10.7c-1.6-4.4-6.2-2.1-9.1-0.7c-14.6,7.2-32.5,7.5-47.3,0.8
		c-16.1-7.3-30.1-22.4-32.5-40.5c-1.4-10.6-1-22.8,3.5-32.6c1.8-3.9,4-7.6,6.6-11c1.8-2.3,5.7-8.5,9.1-7.9c1.4,0.3,2.8,1.1,3.6,2.3
		c2.6,4.1-4.3,10.3-6.5,13.2c-6.9,9.2-9.2,20.5-8.3,31.9c0.4,5.7,2.8,11.6,5.7,16.6c2.4,4.2,5.8,8.3,9.5,11.5
		c3.8,3.4,9.4,6.6,14.1,8.7c4.5,2,11.9,3.9,16.9,3.1c-0.4-1.6-3.3-4.3-4.5-6.4c-2.9-5.3-6.5-11-7.7-17c-1.2-6.3-2-14.1-0.7-20.3
		c1.7-8.3,7.6-15.8,12.6-22.7C101.9,88.3,98,77.9,98,77.9z"/>
</g>
</svg>
