<?xml version="1.0" encoding="UTF-8"?>
<svg width="40px" height="29px" viewBox="0 0 40 29" version="1.1" xmlns="http://www.w3.org/2000/svg" xmlns:xlink="http://www.w3.org/1999/xlink">
    <!-- Generator: Sketch 59.1 (86144) - https://sketch.com -->
    <title>logo_medium</title>
    <desc>Created with Sketch.</desc>
    <g id="Page-1" stroke="none" stroke-width="1" fill="none" fill-rule="evenodd">
        <g id="Artboard" fill="#FFFFFF">
            <path d="M18.2360474,9.99028649 L11.4744275,9.99028649 L2,2 L28.1233271,2 C33.4839507,2.31202395 36.4539443,5.23373934 37.033308,10.7651462 C37.0686906,11.5388906 37.0686906,12.9458558 37.033308,14.9860419 C36.8552827,18.136057 35.323343,20.5439511 32.437489,22.2097243 C32.5918641,22.3602919 34.4460345,23.9570505 38,27 L31.2386384,27 L27.0400394,23.339417 L10.149586,23.339417 L10.149586,27 L5.74635845,27 L5.74635845,19.0119704 L21.8995771,19.0119704 L18.1302571,15.752448 L24.8572955,15.752448 L28.6536689,19.0119704 C31.3213743,18.270483 32.6552271,16.7108384 32.6552271,14.3330366 C32.6644435,13.4387378 32.6644435,12.3550284 32.6552271,11.0819084 C32.2804522,8.23474427 30.8186024,6.65922196 28.2696776,6.35534144 C28.0669957,6.36188786 23.271196,6.36188786 13.8822787,6.35534144 L18.2360474,9.99028649 Z" id="Path-3"></path>
        </g>
    </g>
</svg>